<svg xmlns="http://www.w3.org/2000/svg">
  <symbol id="arrow-forward-20" viewBox="0 0 20 20">
    <path d="M10.0007 3.33337L8.82565 4.50837L13.4756 9.16671H3.33398V10.8334H13.4756L8.82565 15.4917L10.0007 16.6667L16.6673 10L10.0007 3.33337Z"/>
  </symbol>
  <symbol id="arrow-forward-20" viewBox="0 0 20 20">
    <path d="M10 3.58569L16.4142 9.99991L10 16.4141L8.58579 14.9999L12.5858 10.9999H3V8.99991H12.5858L8.58579 4.99991L10 3.58569Z"/>
  </symbol>
  <symbol id="arrow-backward-20" viewBox="0 0 20 20">
    <path d="M11.4144 4.99991L7.41436 8.99991H17.0002V10.9999H7.41436L11.4144 14.9999L10.0002 16.4141L3.58594 9.99991L10.0002 3.58569L11.4144 4.99991Z"/>
  </symbol>
  <symbol id="external-link-20" viewBox="0 0 20 20">
    <path d="M7 3H3V17H17V13H15V15H5V5H7V3Z"/>
    <path d="M17.0002 3H10.0002V5H13.5859L7.58594 11L9.00015 12.4142L15.0002 6.41421V10H17.0002V3Z"/>
  </symbol>
  <symbol id="forbidden-20" viewBox="0 0 20 20">
    <path d="M10 3C6.13401 3 3 6.13401 3 10C3 13.866 6.13401 17 10 17C13.866 17 17 13.866 17 10C17 6.13401 13.866 3 10 3ZM5 10C5 7.23858 7.23858 5 10 5C11.0191 5 11.967 5.3049 12.7575 5.82847L5.82847 12.7575C5.3049 11.967 5 11.0191 5 10ZM7.24272 14.1717L14.1717 7.24272C14.6952 8.03313 15 8.98096 15 10C15 12.7614 12.7614 15 10 15C8.98096 15 8.03313 14.6952 7.24272 14.1717Z" />
  </symbol>
  <symbol id="entry-20" viewBox="0 0 20 20">
    <path d="M6 3V11H12.5858L9.58579 8L11 6.58579L16.4142 12L11 17.4142L9.58579 16L12.5858 13H4V3H6Z"/>
  </symbol>
  <symbol id="add-circle-20" viewBox="0 0 20 20">
    <path d="M10 19C14.9706 19 19 14.9706 19 10C19 5.02944 14.9706 1 10 1C5.02944 1 1 5.02944 1 10C1 14.9706 5.02944 19 10 19ZM11 5V9H15V11H11V15H9V11H5V9H9V5H11Z"/>
  </symbol>
</svg>
