<svg xmlns="http://www.w3.org/2000/svg">
  <symbol id="arrow-forward-20" viewBox="0 0 20 20">
    <path d="M10.0007 3.33337L8.82565 4.50837L13.4756 9.16671H3.33398V10.8334H13.4756L8.82565 15.4917L10.0007 16.6667L16.6673 10L10.0007 3.33337Z"/>
  </symbol>
  <symbol id="arrow-forward-20" viewBox="0 0 20 20">
    <path d="M10 3.58569L16.4142 9.99991L10 16.4141L8.58579 14.9999L12.5858 10.9999H3V8.99991H12.5858L8.58579 4.99991L10 3.58569Z"/>
  </symbol>
  <symbol id="arrow-backward-20" viewBox="0 0 20 20">
    <path d="M11.4144 4.99991L7.41436 8.99991H17.0002V10.9999H7.41436L11.4144 14.9999L10.0002 16.4141L3.58594 9.99991L10.0002 3.58569L11.4144 4.99991Z"/>
  </symbol>
  <symbol id="external-link-20" viewBox="0 0 20 20">
    <path d="M7 3H3V17H17V13H15V15H5V5H7V3Z"/>
    <path d="M17.0002 3H10.0002V5H13.5859L7.58594 11L9.00015 12.4142L15.0002 6.41421V10H17.0002V3Z"/>
  </symbol>
  <symbol id="entry-20" viewBox="0 0 20 20">
    <path d="M6 3V11H12.5858L9.58579 8L11 6.58579L16.4142 12L11 17.4142L9.58579 16L12.5858 13H4V3H6Z"/>
  </symbol>
  <symbol id="add-circle-20" viewBox="0 0 20 20">
    <path d="M10 19C14.9706 19 19 14.9706 19 10C19 5.02944 14.9706 1 10 1C5.02944 1 1 5.02944 1 10C1 14.9706 5.02944 19 10 19ZM11 5V9H15V11H11V15H9V11H5V9H9V5H11Z"/>
  </symbol>
  <symbol id="check-24" viewBox="0 0 24 24">
    <path d="M9.00016 16.1698L4.83016 11.9998L3.41016 13.4098L9.00016 18.9998L21.0002 6.99984L19.5902 5.58984L9.00016 16.1698Z"/>
  </symbol>
</svg>
