<svg xmlns="http://www.w3.org/2000/svg">
  <symbol id="arrow-forward-20" viewBox="0 0 20 20">
    <path d="M10.0007 3.33337L8.82565 4.50837L13.4756 9.16671H3.33398V10.8334H13.4756L8.82565 15.4917L10.0007 16.6667L16.6673 10L10.0007 3.33337Z"/>
  </symbol>
  <symbol id="arrow-forward-20" viewBox="0 0 20 20">
    <path d="M10 3.58569L16.4142 9.99991L10 16.4141L8.58579 14.9999L12.5858 10.9999H3V8.99991H12.5858L8.58579 4.99991L10 3.58569Z"/>
  </symbol>
  <symbol id="arrow-backward-20" viewBox="0 0 20 20">
    <path d="M11.4144 4.99991L7.41436 8.99991H17.0002V10.9999H7.41436L11.4144 14.9999L10.0002 16.4141L3.58594 9.99991L10.0002 3.58569L11.4144 4.99991Z"/>
  </symbol>
  <symbol id="external-link-20" viewBox="0 0 20 20">
    <path d="M7 3H3V17H17V13H15V15H5V5H7V3Z"/>
    <path d="M17.0002 3H10.0002V5H13.5859L7.58594 11L9.00015 12.4142L15.0002 6.41421V10H17.0002V3Z"/>
  </symbol>
  <symbol id="lock-20" viewBox="0 0 20 20">
    <path d="M8 5C7.44772 5 7 5.44772 7 6V9H5V6C5 4.34315 6.34315 3 8 3H12C13.6569 3 15 4.34315 15 6V9H13V6C13 5.44772 12.5523 5 12 5H8Z"/>
    <path d="M15 17H5C3.89543 17 3 16.1046 3 15V10C3 8.89543 3.89543 8 5 8H15C16.1046 8 17 8.89543 17 10V15C17 16.1046 16.1046 17 15 17Z"/>
  </symbol>
  <symbol id="entry-20" viewBox="0 0 20 20">
    <path d="M6 3V11H12.5858L9.58579 8L11 6.58579L16.4142 12L11 17.4142L9.58579 16L12.5858 13H4V3H6Z"/>
  </symbol>
  <symbol id="add-circle-20" viewBox="0 0 20 20">
    <path d="M10 19C14.9706 19 19 14.9706 19 10C19 5.02944 14.9706 1 10 1C5.02944 1 1 5.02944 1 10C1 14.9706 5.02944 19 10 19ZM11 5V9H15V11H11V15H9V11H5V9H9V5H11Z"/>
  </symbol>
</svg>
