<svg xmlns="http://www.w3.org/2000/svg">
  <symbol id="arrow-forward-20" viewBox="0 0 20 20">
    <path d="M10 3.58569L16.4142 9.99991L10 16.4141L8.58579 14.9999L12.5858 10.9999H3V8.99991H12.5858L8.58579 4.99991L10 3.58569Z"/>
  </symbol>
  <symbol id="chevron-up-20" viewBox="0 0 20 20">
    <path d="M10.0002 6.58578L15.4144 12L14.0002 13.4142L10.0002 9.41421L6.00015 13.4142L4.58594 12L10.0002 6.58578Z"/>
  </symbol>
  <symbol id="chevron-down-20" viewBox="0 0 20 20">
    <path d="M6.00015 6.58578L10.0002 10.5858L14.0002 6.58578L15.4144 8L10.0002 13.4142L4.58594 8L6.00015 6.58578Z"/>
  </symbol>
  <symbol id="chevron-left-20" viewBox="0 0 20 20">
    <path d="M13.4144 6L9.41436 10L13.4144 14L12.0002 15.4142L6.58594 10L12.0002 4.58578L13.4144 6Z"/>
  </symbol>
  <symbol id="chevron-right-20" viewBox="0 0 20 20">
    <path d="M8.00015 4.58578L13.4144 10L8.00015 15.4142L6.58594 14L10.5859 10L6.58594 6L8.00015 4.58578Z"/>
  </symbol>
  <symbol id="arrow-forward-12" viewBox="0 0 12 12">
    <path d="M6.0005 0.585449L11.4147 5.99966L6.0005 11.4139L4.58628 9.99966L7.58628 6.99966H1V4.99966H7.58628L4.58628 1.99966L6.0005 0.585449Z"/>
  </symbol>
  <symbol id="arrow-backward-12" viewBox="0 0 12 12">
    <path d="M7.41436 1.99995L4.41447 4.99966H11.0006V6.99966H4.41426L7.41436 9.99995L6.00011 11.4141L0.585938 5.99962L6.00019 0.585693L7.41436 1.99995Z"/>
  </symbol>
  <symbol id="arrow-backward-20" viewBox="0 0 20 20">
    <path d="M11.4144 4.99991L7.41436 8.99991H17.0002V10.9999H7.41436L11.4144 14.9999L10.0002 16.4141L3.58594 9.99991L10.0002 3.58569L11.4144 4.99991Z"/>
  </symbol>
  <symbol id="external-link-20" viewBox="0 0 20 20">
    <path d="M7 3H3V17H17V13H15V15H5V5H7V3Z"/>
    <path d="M17.0002 3H10.0002V5H13.5859L7.58594 11L9.00015 12.4142L15.0002 6.41421V10H17.0002V3Z"/>
  </symbol>
  <symbol id="forbidden-20" viewBox="0 0 20 20">
    <path d="M10 3C6.13401 3 3 6.13401 3 10C3 13.866 6.13401 17 10 17C13.866 17 17 13.866 17 10C17 6.13401 13.866 3 10 3ZM7.24268 5.82835C8.0331 5.30486 8.98095 5 10 5C12.7614 5 15 7.23858 15 10C15 11.0191 14.6951 11.9669 14.1717 12.7573L7.24268 5.82835ZM5.82844 7.24254L12.7575 14.1716C11.967 14.6951 11.0191 15 10 15C7.23858 15 5 12.7614 5 10C5 8.98089 5.3049 8.03298 5.82844 7.24254Z"/>
  </symbol>
  <symbol id="entry-20" viewBox="0 0 20 20">
    <path d="M6 3V11H12.5858L9.58579 8L11 6.58579L16.4142 12L11 17.4142L9.58579 16L12.5858 13H4V3H6Z"/>
  </symbol>
  <symbol id="add-circle-20" viewBox="0 0 20 20">
    <path d="M10 19C14.9706 19 19 14.9706 19 10C19 5.02944 14.9706 1 10 1C5.02944 1 1 5.02944 1 10C1 14.9706 5.02944 19 10 19ZM11 5V9H15V11H11V15H9V11H5V9H9V5H11Z"/>
  </symbol>
  <symbol id="add-20" viewBox="0 0 20 20">
    <path d="M11 3V17H9V3H11Z"/>
    <path d="M3 9V11H17V9H3Z"/>
  </symbol>
  <symbol id="minus-20" viewBox="0 0 20 20">
    <path d="M3 9H17V11H3V9Z"/>
  </symbol>
  <symbol id="mail-20" viewBox="0 0 20 20">
    <path d="M2 4H18V16H2V4ZM5.70326 6L10 9.68292L14.2967 6H5.70326ZM16 7.17422L10 12.3171L4 7.17422V14H16V7.17422Z"/>
  </symbol>
  <symbol id="copy-20" viewBox="0 0 20 20">
    <path d="M12 3H4V13H6V5H12V3Z"/>
    <path d="M16 17V7H8V17H16ZM10 15V9H14V15H10Z"/>
  </symbol>
  <symbol id="check-20" viewBox="0 0 20 20">
    <path d="M16.4112 5.90588L8.04886 15.4629L3.58594 10.9999L5.00015 9.58573L7.95144 12.537L14.9061 4.58887L16.4112 5.90588Z"/>
  </symbol>
  <symbol id="reset-20" viewBox="0 0 20 20">
    <path d="M5 10C5 7.23858 7.23858 5 10 5V3C6.13401 3 3 6.13401 3 10C3 13.866 6.13401 17 10 17C13.866 17 17 13.866 17 10C17 8.72514 16.6587 7.52949 16.0633 6.5H18.0001V4.5H13.323L11.7002 8.55709L13.5571 9.29987L14.2991 7.44505C14.7446 8.1929 15 9.06636 15 10C15 12.7614 12.7614 15 10 15C7.23858 15 5 12.7614 5 10Z"/>
  </symbol>
  <symbol id="move-20" viewBox="0 0 20 20">
    <path d="M7.99885 17L4 4L17 8L10.9989 11L7.99885 17Z"/>
  </symbol>
  <symbol id="scale-20" viewBox="0 0 20 20">
    <path d="M17 8V3H12L13.7929 4.79294L4.79293 13.7929L3 12V17H8L6.20715 15.2072L15.2072 6.20715L17 8Z"/>
  </symbol>
  <symbol id="resize-20" viewBox="0 0 20 20">
    <path d="M6 1.99997L2 5L6 7.99997V6.05573C6.83859 6.14949 7.66151 6.3609 8.44415 6.68508C9.53608 7.13738 10.5282 7.80031 11.364 8.63604C12.1997 9.47177 12.8626 10.4639 13.3149 11.5558C13.6391 12.3385 13.8505 13.1614 13.9443 14H12L15.0006 18L18.0006 14H15.9545C15.8539 12.8983 15.5875 11.8161 15.1627 10.7905C14.6099 9.4559 13.7996 8.24327 12.7782 7.22183C11.7567 6.20038 10.5441 5.39013 9.20952 4.83733C8.18391 4.4125 7.10171 4.14612 6 4.04555V1.99997Z"/>
  </symbol>
</svg>

