<svg xmlns="http://www.w3.org/2000/svg">
  <symbol id="arrow-forward-20" viewBox="0 0 20 20">
    <path d="M10.0007 3.33337L8.82565 4.50837L13.4756 9.16671H3.33398V10.8334H13.4756L8.82565 15.4917L10.0007 16.6667L16.6673 10L10.0007 3.33337Z"/>
  </symbol>
  <symbol id="arrow-forward-16" viewBox="0 0 16 16">
    <path d="M7.99935 2.66675L7.05935 3.60675L10.7793 7.33341H2.66602V8.66675H10.7793L7.05935 12.3934L7.99935 13.3334L13.3327 8.00008L7.99935 2.66675Z"/>
  </symbol>
  <symbol id="arrow-forward-20" viewBox="0 0 20 20" fill="white">
    <path d="M10 3.58569L16.4142 9.99991L10 16.4141L8.58579 14.9999L12.5858 10.9999H3V8.99991H12.5858L8.58579 4.99991L10 3.58569Z"/>
  </symbol>
  <symbol id="arrow-backward-20" viewBox="0 0 20 20">
    <path d="M11.4144 4.99991L7.41436 8.99991H17.0002V10.9999H7.41436L11.4144 14.9999L10.0002 16.4141L3.58594 9.99991L10.0002 3.58569L11.4144 4.99991Z" fill="white"/>
  </symbol>
  <symbol id="external-link-20" viewBox="0 0 20 20">
    <path d="M7 3H3V17H17V13H15V15H5V5H7V3Z"/>
    <path d="M17.0002 3H10.0002V5H13.5859L7.58594 11L9.00015 12.4142L15.0002 6.41421V10H17.0002V3Z"/>
  </symbol>
  <symbol id="auto-renew-16" viewBox="0 0 16 16">
    <path d="M7.99935 4.00008V6.00008L10.666 3.33341L7.99935 0.666748V2.66675C5.05268 2.66675 2.66602 5.05341 2.66602 8.00008C2.66602 9.04675 2.97268 10.0201 3.49268 10.8401L4.46602 9.86675C4.16602 9.31341 3.99935 8.67341 3.99935 8.00008C3.99935 5.79341 5.79268 4.00008 7.99935 4.00008ZM12.506 5.16008L11.5327 6.13341C11.826 6.69341 11.9993 7.32675 11.9993 8.00008C11.9993 10.2067 10.206 12.0001 7.99935 12.0001V10.0001L5.33268 12.6667L7.99935 15.3334V13.3334C10.946 13.3334 13.3327 10.9467 13.3327 8.00008C13.3327 6.95341 13.026 5.98008 12.506 5.16008V5.16008Z"/>
  </symbol>
  <symbol id="block-16" viewBox="0 0 16 16">
    <path d="M8.00065 1.33325C4.32065 1.33325 1.33398 4.31992 1.33398 7.99992C1.33398 11.6799 4.32065 14.6666 8.00065 14.6666C11.6807 14.6666 14.6673 11.6799 14.6673 7.99992C14.6673 4.31992 11.6807 1.33325 8.00065 1.33325ZM2.66732 7.99992C2.66732 5.05325 5.05398 2.66659 8.00065 2.66659C9.23398 2.66659 10.3673 3.08659 11.2673 3.79325L3.79398 11.2666C3.08732 10.3666 2.66732 9.23325 2.66732 7.99992ZM8.00065 13.3333C6.76732 13.3333 5.63398 12.9133 4.73398 12.2066L12.2073 4.73325C12.914 5.63325 13.334 6.76659 13.334 7.99992C13.334 10.9466 10.9473 13.3333 8.00065 13.3333Z"/>
  </symbol>
  <symbol id="entry-20" viewBox="0 0 20 20">
    <path d="M15.834 12.4999L10.834 17.4999L9.65065 16.3166L12.6423 13.3333H3.33398V3.33325H5.00065V11.6666H12.6423L9.65065 8.68325L10.834 7.49992L15.834 12.4999Z"/>
  </symbol>
  <symbol id="add-circle-24" viewBox="0 0 24 24">
    <path d="M12 2C6.48 2 2 6.48 2 12C2 17.52 6.48 22 12 22C17.52 22 22 17.52 22 12C22 6.48 17.52 2 12 2ZM17 13H13V17H11V13H7V11H11V7H13V11H17V13Z" />
  </symbol>
  <symbol id="check-24" viewBox="0 0 24 24">
    <path d="M9.00016 16.1698L4.83016 11.9998L3.41016 13.4098L9.00016 18.9998L21.0002 6.99984L19.5902 5.58984L9.00016 16.1698Z"/>
  </symbol>
</svg>
