<svg width="208" height="208" viewBox="0 0 208 208" fill="none" xmlns="http://www.w3.org/2000/svg">
<path d="M49.0881 45.12H49.2321V48H58.0881V47.784L55.5681 44.688V32.88L56.4321 30.216V30H40.2681V37.596H40.6641C43.1481 33.348 45.6681 31.404 47.3601 31.404C48.5841 31.404 49.0881 32.412 49.0881 33.996V36.804C40.1601 39.108 38.6481 41.484 38.6481 43.968C38.6481 46.74 40.5201 48.432 43.2921 48.432C45.3801 48.432 47.4321 47.46 49.0881 45.12ZM49.0881 43.788C48.5481 44.436 47.8641 44.724 47.2161 44.724C45.9561 44.724 45.1281 43.644 45.1281 41.844C45.1281 39.9 46.1001 38.964 49.0881 38.028V43.788ZM60.0772 28.344V48H60.5092L64.2172 47.388C65.4772 48.036 67.2412 48.432 69.1852 48.432C75.5212 48.432 78.6892 44.328 78.6892 38.64C78.6892 33.096 75.6652 29.568 71.7772 29.568C69.6172 29.568 67.9972 30.684 66.5572 33.096H66.4132L66.5572 30.144V22.008L57.6292 24.636V24.852L60.0772 28.344ZM66.5572 34.752C67.0972 34.176 67.7452 33.888 68.3932 33.888C70.5892 33.888 72.0652 36.948 72.0652 41.592C72.0652 45.228 71.1652 47.028 69.5812 47.028C68.5012 47.028 67.2772 46.128 66.5572 44.22V34.752ZM91.0427 30C84.3467 30 80.2787 33.852 80.2787 39.612C80.2787 44.328 83.0507 48.432 88.0187 48.432C92.2667 48.432 94.9307 45.444 95.9387 41.052L95.5787 40.908C94.5347 42.528 93.0947 43.824 91.1867 43.824C88.0547 43.824 86.3627 40.332 86.3627 36.48C86.3627 33.24 87.5867 31.584 89.2787 31.584C90.6467 31.584 92.3747 32.664 94.7507 37.56H95.1467V30H91.0427ZM109.555 44.904H109.699V48H118.555V47.784L116.035 44.688V22.008L107.107 24.636V24.852L109.555 28.344V29.82C108.763 29.676 107.863 29.568 106.927 29.568C100.591 29.568 97.4227 33.672 97.4227 39.36C97.4227 44.904 100.447 48.432 104.335 48.432C106.495 48.432 108.115 47.316 109.555 44.904ZM109.555 43.248C109.015 43.824 108.367 44.112 107.719 44.112C105.523 44.112 104.047 41.052 104.047 36.408C104.047 32.772 104.947 30.972 106.531 30.972C107.611 30.972 108.835 31.872 109.555 33.78V43.248ZM130.397 43.824C127.949 43.824 125.609 42.348 125.141 38.028H135.977C135.977 32.628 132.845 29.568 128.093 29.568C122.297 29.568 119.165 34.032 119.165 39.144C119.165 44.004 122.153 48.432 127.841 48.432C131.153 48.432 134.321 46.74 135.761 41.304L135.401 41.088C134.285 42.852 132.413 43.824 130.397 43.824ZM125.033 36.228C125.033 32.592 126.041 31.116 127.409 31.116C128.921 31.116 130.037 33.132 130.217 36.588H125.033V36.228ZM139.593 44.688L137.073 47.784V48H149.097V47.784L146.073 44.616V32.304H150.573L151.797 30.216V22.44H147.045C141.609 22.44 139.809 25.464 139.593 30H137.577L136.353 32.088V32.304H139.593V44.688ZM143.409 25.608C143.409 24.492 144.057 23.952 145.065 23.952C146.829 23.952 149.025 25.86 151.437 30H146.073C144.381 28.704 143.409 26.94 143.409 25.608ZM158.938 42.096C164.842 42.096 167.362 38.928 167.362 35.724C167.362 34.536 167.002 33.42 166.318 32.52V32.304H168.55L169.774 30.216V30H159.982C154.078 30 151.558 33.168 151.558 36.372C151.558 38.388 152.566 40.188 154.618 41.196C153.034 42.24 151.558 43.68 151.558 45.732C151.558 47.244 152.35 48.54 154.402 49.368C151.666 50.448 150.766 51.636 150.766 52.86C150.766 55.092 153.682 56.172 157.642 56.172C165.562 56.172 169.63 52.032 169.63 47.856C169.63 46.524 169.306 45.156 168.55 44.04H156.598C155.662 44.04 155.158 43.68 155.158 43.104C155.158 42.672 155.41 42.168 155.878 41.7C156.778 41.952 157.786 42.096 158.938 42.096ZM161.422 37.56C161.422 39.9 160.846 40.8 160.054 40.8C158.686 40.8 157.462 37.956 157.462 34.608C157.462 32.268 158.038 31.368 158.83 31.368C160.198 31.368 161.422 34.212 161.422 37.56ZM155.158 51.096C155.158 50.592 155.266 50.124 155.374 49.872H167.038C167.11 50.052 167.146 50.34 167.146 50.556C167.146 52.428 162.862 53.652 159.19 53.652C155.95 53.652 155.158 52.608 155.158 51.096ZM56.6226 80.688V71.076C57.4866 70.356 58.5666 69.96 59.4306 69.96C60.4746 69.96 61.4106 70.536 61.4106 72.408V80.688L59.6106 83.784V84H70.4106V83.784L67.8906 80.688V71.22C67.8906 67.512 65.8386 65.568 63.0306 65.568C60.8346 65.568 58.6386 66.756 56.6226 69.456H56.4786L56.6226 66V58.008L47.6946 60.636V60.852L50.1426 64.344V80.688L47.6226 83.784V84H58.4226V83.784L56.6226 80.688ZM71.2246 61.356L75.8686 66L80.5126 61.356L75.8686 56.712L71.2246 61.356ZM79.3246 65.568L70.3966 68.16V68.376L72.8446 71.868V80.688L70.3246 83.784V84H81.8446V83.784L79.3246 80.688V65.568ZM82.6306 61.356L87.2746 66L91.9186 61.356L87.2746 56.712L82.6306 61.356ZM84.2506 85.08C84.2506 87.744 83.8546 90.228 82.7746 91.956L82.9546 92.172C87.9226 90.336 90.7306 87.492 90.7306 83.784V65.568L81.8026 68.16V68.376L84.2506 71.868V85.08ZM106.9 70.104L101.716 74.352V58.008L92.7883 60.636V60.852L95.2363 64.344V80.688L92.7163 83.784V84H103.516V83.784L101.716 80.688V76.188L103.048 75.144L106.288 81.516L106.936 84H116.008V83.784L113.092 80.868L107.836 71.4L114.46 66.216V66H104.74V66.216L106.9 70.104ZM124.628 58.008L115.7 60.636V60.852L118.148 64.344V66.396L115.7 68.556V68.772L118.148 70.932V80.688L115.628 83.784V84H127.148V83.784L124.628 80.688V58.008ZM136.215 80.688V71.076C137.043 70.392 138.051 69.96 138.843 69.96C139.815 69.96 140.643 70.536 140.643 72.408V84H149.643V83.784L147.123 80.688V71.076C147.915 70.428 148.959 69.96 149.751 69.96C150.723 69.96 151.551 70.536 151.551 72.408V84H160.551V83.784L158.031 80.688V71.22C158.031 67.512 156.051 65.568 153.351 65.568C151.227 65.568 149.103 66.792 147.123 69.456H146.943C146.403 66.9 144.675 65.568 142.443 65.568C140.319 65.568 138.195 66.792 136.215 69.456H136.071V65.532L127.287 68.16V68.376L129.735 71.868V80.688L127.215 83.784V84H138.735V83.784L136.215 80.688ZM46.5824 112.688V103.076C47.4464 102.356 48.5264 101.96 49.3904 101.96C50.4344 101.96 51.3704 102.536 51.3704 104.408V112.688L49.5704 115.784V116H60.3704V115.784L57.8504 112.688V103.22C57.8504 99.512 55.7984 97.568 52.9904 97.568C50.7944 97.568 48.5984 98.756 46.5824 101.456H46.4384V97.532L37.6544 100.16V100.376L40.1024 103.868V112.688L37.5824 115.784V116H48.3824V115.784L46.5824 112.688ZM79.8978 106.784C79.8978 101.78 76.8018 97.568 70.6818 97.568C65.0298 97.568 60.8178 101.348 60.8178 107.216C60.8178 112.22 63.9138 116.432 70.0338 116.432C75.6858 116.432 79.8978 112.652 79.8978 106.784ZM73.2018 109.808C73.2018 113.804 72.3378 114.956 71.2938 114.956C69.1338 114.956 67.5138 109.844 67.5138 104.192C67.5138 100.196 68.3778 99.044 69.4218 99.044C71.5818 99.044 73.2018 104.156 73.2018 109.808ZM83.1334 120.428L80.6134 123.524V123.74H92.4934V123.524L89.6134 120.356V116.144C90.4054 116.288 91.3054 116.396 92.2414 116.396C98.5774 116.396 101.745 112.292 101.745 106.604C101.745 101.06 98.7214 97.532 94.8334 97.532C92.6734 97.532 91.0534 98.648 89.6134 101.06H89.4694V97.568L80.6854 100.16V100.376L83.1334 103.868V120.428ZM89.6134 102.716C90.1534 102.14 90.8014 101.852 91.4494 101.852C93.6454 101.852 95.1214 104.912 95.1214 109.556C95.1214 113.192 94.2214 114.992 92.6374 114.992C91.5574 114.992 90.3334 114.092 89.6134 112.184V102.716ZM115.602 120.356L112.722 123.524V123.74H124.602V123.524L122.082 120.428V98H121.65L117.942 98.612C116.682 97.964 114.918 97.568 112.974 97.568C106.638 97.568 103.47 101.672 103.47 107.36C103.47 112.904 106.494 116.432 110.382 116.432C112.542 116.432 114.162 115.316 115.602 112.904H115.746L115.602 115.856V120.356ZM115.602 111.248C115.062 111.824 114.414 112.112 113.766 112.112C111.57 112.112 110.094 109.052 110.094 104.408C110.094 100.772 110.994 98.972 112.578 98.972C113.658 98.972 114.882 99.872 115.602 101.78V111.248ZM133.391 103.184H133.247V97.532L124.463 100.16V100.376L126.911 103.868V112.688L124.391 115.784V116H136.415V115.784L133.391 112.616V104.624C135.011 103.904 136.667 103.652 139.259 103.616L139.655 97.568C136.847 97.568 134.615 99.692 133.391 103.184ZM155.363 110.42C155.363 107.504 153.779 105.452 151.187 104.48L149.063 103.688C146.507 102.752 145.859 101.96 145.859 100.988C145.859 99.944 146.615 99.332 147.731 99.332C149.783 99.332 151.763 101.348 153.671 104.66H154.031V98H148.415C143.627 98 141.071 100.304 141.071 103.724C141.071 106.928 143.087 108.728 145.679 109.7L147.803 110.492C150.215 111.392 150.899 112.22 150.899 113.264C150.899 114.488 149.963 115.064 148.631 115.064C146.471 115.064 144.383 113.444 141.575 108.44H141.215V116.432L144.383 115.892C145.391 116.216 146.579 116.432 147.947 116.432C151.871 116.432 155.363 114.596 155.363 110.42ZM155.809 100.304H159.049V110.996C159.049 114.668 161.389 116.432 164.305 116.432C167.221 116.432 169.597 114.704 170.749 110.096L170.389 109.88C169.453 111.284 168.337 112.04 167.257 112.04C166.213 112.04 165.529 111.32 165.529 109.808V100.304H169.489L170.713 98.216V98H165.529V92.204H165.169L159.049 95.264V98H157.033L155.809 100.088V100.304ZM60.2549 129.568L51.3269 132.16V132.376L53.7749 135.868V142.924C52.9469 143.608 51.9389 144.04 51.1469 144.04C50.1749 144.04 49.3469 143.464 49.3469 141.592V129.568L40.4189 132.16V132.376L42.8669 135.868V142.78C42.8669 146.488 44.8469 148.432 47.5469 148.432C49.6709 148.432 51.7949 147.208 53.7749 144.544H53.9189V148H62.7749V147.784L60.2549 144.688V129.568ZM79.9355 133.312L82.4555 130.216V130H76.0475V130.216L78.2075 133.312L75.1115 140.512L71.8715 133.312L74.0315 130.216V130H62.1875V130.216L64.7075 133.312L71.8715 148.216H73.3835L79.9355 133.312ZM108.365 133.312L110.885 130.216V130H104.477V130.216L106.637 133.312L104.513 139.72L101.885 133.312L103.073 130.216V130H93.6047V130.144L93.5687 130.216L93.6767 130.324L95.4407 134.356L93.2447 140.008L90.9407 133.312L92.3807 130.216V130H81.4727V130.216L83.9927 133.312L90.0767 148.216H91.5887L96.3407 136.372L101.597 148.216H103.109L108.365 133.312ZM128.042 144.688L123.722 138.352L127.178 133.42L130.634 130.216V130H123.722V130.216L125.27 133.384L122.786 137.02L120.266 133.312L121.706 130.216V130H110.294V130.216L113.174 133.312L117.278 139.288L113.57 144.58L110.114 147.784V148H117.026V147.784L115.478 144.616L118.178 140.656L120.95 144.688L119.51 147.784V148H130.922V147.784L128.042 144.688ZM143.309 155.524L139.889 152.068L147.881 133.312L150.401 130.216V130H143.993V130.216L146.153 133.312L143.057 140.512L139.817 133.312L141.977 130.216V130H130.133V130.216L132.653 133.312L139.673 147.928L137.729 152.068L133.733 155.524V155.74H143.309V155.524ZM151.218 137.452H151.578L156.114 131.44H159.318L150.642 146.812V148H166.482V140.404H166.122L162.378 146.56H157.77L166.446 131.188V130H155.826L151.578 129.352L151.218 137.452Z" fill="white"/>
<path d="M70.2407 172.3C71.0707 172.08 71.5207 171.47 71.5207 170.73C71.5207 169.69 70.7807 168.9 69.1607 168.9H65.9607V176H69.2907C70.9107 176 71.7007 175.12 71.7007 174C71.7007 173.06 71.1607 172.44 70.2407 172.3ZM68.7107 170.09C69.4407 170.09 69.7607 170.45 69.7607 170.95C69.7607 171.43 69.4707 171.82 68.7107 171.82H67.6507V170.09H68.7107ZM68.8207 174.81H67.6507V172.94H68.8607C69.5707 172.94 69.9407 173.31 69.9407 173.86C69.9407 174.4 69.5907 174.81 68.8207 174.81ZM74.3573 168.75H72.7473V176H74.3573V168.75ZM77.3442 176.12C78.0742 176.12 78.6642 175.72 78.9042 175.09V176H80.4342V171H78.8242V173.86C78.8242 174.49 78.5042 174.9 77.9842 174.9C77.5142 174.9 77.2642 174.58 77.2642 173.96V171H75.6642V174.24C75.6642 175.41 76.1642 176.12 77.3442 176.12ZM83.3696 176.12C84.0996 176.12 84.6896 175.72 84.9296 175.09V176H86.4596V171H84.8496V173.86C84.8496 174.49 84.5296 174.9 84.0096 174.9C83.5396 174.9 83.2896 174.58 83.2896 173.96V171H81.6896V174.24C81.6896 175.41 82.1896 176.12 83.3696 176.12ZM92.6957 176.17C94.5557 176.17 95.5957 175.24 95.5957 173.89C95.5957 172.67 94.9157 172.07 93.6557 171.79L92.6257 171.57C91.8757 171.4 91.5957 171.17 91.5957 170.71C91.5957 170.26 92.0257 169.98 92.6957 169.98C93.5057 169.98 94.1657 170.38 94.5257 171.07L95.6257 170.14C95.1257 169.19 94.0657 168.73 92.8057 168.73C91.0957 168.73 90.0357 169.54 90.0357 170.84C90.0357 172.03 90.7557 172.7 91.9957 172.97L92.9457 173.17C93.6657 173.32 93.9757 173.52 93.9757 174.05C93.9757 174.61 93.4357 174.86 92.7557 174.86C91.8157 174.86 91.1957 174.37 90.8257 173.64L89.5757 174.52C90.0657 175.52 91.1657 176.17 92.6957 176.17ZM98.1255 176.12C98.8555 176.12 99.4455 175.72 99.6855 175.09V176H101.215V171H99.6055V173.86C99.6055 174.49 99.2855 174.9 98.7655 174.9C98.2955 174.9 98.0455 174.58 98.0455 173.96V171H96.4455V174.24C96.4455 175.41 96.9455 176.12 98.1255 176.12ZM104.151 176.12C104.881 176.12 105.471 175.72 105.711 175.09V176H107.241V171H105.631V173.86C105.631 174.49 105.311 174.9 104.791 174.9C104.321 174.9 104.071 174.58 104.071 173.96V171H102.471V174.24C102.471 175.41 102.971 176.12 104.151 176.12ZM108.576 177.95H110.186V175.37C110.516 175.84 110.986 176.12 111.616 176.12C112.856 176.12 113.676 175.09 113.676 173.49C113.676 171.9 112.886 170.88 111.676 170.88C110.996 170.88 110.426 171.2 110.116 171.8V171H108.576V177.95ZM111.086 175.01C110.506 175.01 110.146 174.48 110.146 173.66V173.38C110.146 172.47 110.496 171.99 111.076 171.99C111.686 171.99 112.026 172.53 112.026 173.49C112.026 174.43 111.666 175.01 111.086 175.01ZM119.348 173.38C119.348 171.79 118.468 170.88 116.898 170.88C115.338 170.88 114.358 171.91 114.358 173.55C114.358 175.17 115.358 176.12 117.008 176.12C118.048 176.12 118.898 175.63 119.298 174.81L118.118 174.27C117.888 174.73 117.518 174.97 117.028 174.97C116.358 174.97 115.888 174.54 115.878 173.86H119.348V173.38ZM117.798 172.96H115.878C115.898 172.25 116.248 171.83 116.868 171.83C117.468 171.83 117.798 172.21 117.798 172.92V172.96ZM121.864 172.29V171H120.354V176H121.964V173.96C121.964 173.45 122.044 173 122.364 172.7C122.584 172.51 122.904 172.4 123.334 172.4C123.454 172.4 123.534 172.4 123.634 172.41V170.88H123.534C122.674 170.88 122.124 171.39 121.864 172.29ZM126.386 176.12C127.786 176.12 128.596 175.49 128.596 174.47C128.596 173.61 128.176 173.08 127.106 172.93L126.216 172.79C125.776 172.73 125.626 172.6 125.626 172.36C125.626 172.08 125.846 171.95 126.326 171.95C126.946 171.95 127.446 172.2 127.816 172.62L128.646 171.87C128.236 171.25 127.386 170.88 126.376 170.88C124.996 170.88 124.176 171.49 124.176 172.46C124.176 173.31 124.686 173.84 125.766 174L126.486 174.1C127.036 174.18 127.196 174.29 127.196 174.59C127.196 174.87 126.936 175.03 126.416 175.03C125.726 175.03 125.186 174.76 124.836 174.22L123.906 174.92C124.386 175.71 125.286 176.12 126.386 176.12ZM128.991 172.07H129.861V174.4C129.861 175.49 130.411 176.1 131.741 176.1C132.031 176.1 132.281 176.07 132.651 176V174.73C132.501 174.76 132.381 174.78 132.191 174.78C131.711 174.78 131.461 174.52 131.461 174.02V172.07H132.651V171H131.461V169.18L129.861 169.8V171H128.991V172.07ZM134.906 176.12C135.686 176.12 136.326 175.77 136.576 175.21C136.586 175.49 136.606 175.76 136.656 176H138.216C138.126 175.69 138.076 175.2 138.076 174.61V172.95C138.076 171.51 137.356 170.88 135.746 170.88C134.326 170.88 133.426 171.54 133.346 172.65H134.936C134.966 172.17 135.246 171.91 135.736 171.91C136.236 171.91 136.476 172.16 136.476 172.73V172.9L135.266 173.07C134.506 173.17 134.026 173.33 133.696 173.56C133.356 173.8 133.186 174.17 133.186 174.64C133.186 175.53 133.876 176.12 134.906 176.12ZM135.506 175.1C135.086 175.1 134.806 174.87 134.806 174.52C134.806 174.15 135.076 173.94 135.666 173.83L136.526 173.69V174.09C136.526 174.69 136.116 175.1 135.506 175.1ZM140.838 172.29V171H139.328V176H140.938V173.96C140.938 173.45 141.018 173 141.338 172.7C141.558 172.51 141.878 172.4 142.308 172.4C142.428 172.4 142.508 172.4 142.608 172.41V170.88H142.508C141.648 170.88 141.098 171.39 140.838 172.29Z" fill="white"/>
<path d="M76.5101 184.33C77.3201 184.1 77.7001 183.46 77.7001 182.79C77.7001 181.95 77.2101 180.9 75.3401 180.9H72.8701V188H75.5501C77.3501 188 77.9001 186.96 77.9001 186.05C77.9001 185.1 77.3601 184.48 76.5101 184.33ZM75.3401 181.7C76.4901 181.7 76.7601 182.3 76.7601 182.86C76.7601 183.35 76.5601 183.98 75.3401 183.98H73.8201V181.7H75.3401ZM75.5001 187.2H73.8201V184.78H75.6001C76.5701 184.78 76.9601 185.3 76.9601 185.96C76.9601 186.6 76.6101 187.2 75.5001 187.2ZM80.2521 180.75H79.4021V188H80.2521V180.75ZM83.3461 188.12C84.1661 188.12 84.7961 187.73 85.0261 187.09C85.0361 187.41 85.0661 187.74 85.1061 188H85.9961C85.8761 187.61 85.8261 187.08 85.8261 186.31V184.96C85.8261 183.5 85.2261 182.88 83.8561 182.88C82.6861 182.88 81.8861 183.55 81.8161 184.57H82.7261C82.7661 183.94 83.1861 183.58 83.8661 183.58C84.6361 183.58 84.9661 183.95 84.9661 184.87V184.95L84.0361 185.06C83.2161 185.16 82.7361 185.28 82.3561 185.47C81.9061 185.72 81.6561 186.15 81.6561 186.65C81.6561 187.54 82.3261 188.12 83.3461 188.12ZM83.5361 187.42C82.9261 187.42 82.5561 187.12 82.5561 186.63C82.5561 186.14 82.8761 185.88 83.6161 185.77L84.9761 185.57V185.82C84.9761 186.79 84.4061 187.42 83.5361 187.42ZM89.2979 188.12C90.4179 188.12 91.1679 187.46 91.3479 186.32L90.5379 186.19C90.4079 186.97 89.9879 187.38 89.3079 187.38C88.4179 187.38 87.8979 186.69 87.8979 185.49C87.8979 184.32 88.4179 183.62 89.2779 183.62C89.9579 183.62 90.3979 184.04 90.4879 184.8L91.3579 184.7C91.2279 183.55 90.4679 182.88 89.2979 182.88C87.8779 182.88 86.9979 183.87 86.9979 185.5C86.9979 187.1 87.8979 188.12 89.2979 188.12ZM96.0315 188H97.0815L95.1315 184.93L96.9615 183H95.8515L93.6115 185.46V180.75H92.7615V188H93.6115V186.47L94.5215 185.55L96.0315 188ZM104.829 181.7V180.9H100.429V188H101.379V184.76H104.659V183.96H101.379V181.7H104.829ZM107.863 188.12C109.273 188.12 110.193 187.13 110.193 185.5C110.193 183.87 109.273 182.88 107.863 182.88C106.453 182.88 105.533 183.87 105.533 185.5C105.533 187.13 106.453 188.12 107.863 188.12ZM107.863 187.38C106.963 187.38 106.433 186.74 106.433 185.5C106.433 184.26 106.963 183.62 107.863 183.62C108.763 183.62 109.293 184.26 109.293 185.5C109.293 186.74 108.763 187.38 107.863 187.38ZM113.1 188.12C113.8 188.12 114.42 187.67 114.65 187.06V188H115.45V183H114.6V185.69C114.6 186.71 114.06 187.39 113.26 187.39C112.6 187.39 112.24 186.93 112.24 186.09V183H111.39V186.19C111.39 187.36 111.84 188.12 113.1 188.12ZM117.253 188H118.103V185.39C118.103 184.28 118.613 183.61 119.443 183.61C120.173 183.61 120.543 184.06 120.543 184.94V188H121.393V184.89C121.393 183.55 120.823 182.86 119.723 182.86C118.933 182.86 118.383 183.23 118.053 183.99V183H117.253V188ZM124.624 188.12C125.404 188.12 125.944 187.74 126.244 187.07V188H127.044V180.75H126.194V183.74C125.874 183.15 125.384 182.88 124.724 182.88C123.474 182.88 122.594 183.96 122.594 185.5C122.594 187.07 123.414 188.12 124.624 188.12ZM124.854 187.37C124.004 187.37 123.494 186.67 123.494 185.5C123.494 184.32 124.004 183.63 124.854 183.63C125.694 183.63 126.214 184.3 126.214 185.39V185.62C126.214 186.69 125.684 187.37 124.854 187.37ZM129.683 184.14V183H128.893V188H129.743V185.86C129.743 185.26 129.763 184.59 130.243 184.11C130.483 183.87 130.823 183.72 131.343 183.72H131.383V182.89C131.323 182.88 131.263 182.88 131.203 182.88C130.443 182.88 129.923 183.44 129.683 184.14ZM132.81 190.01C133.65 190.01 134.25 189.59 134.71 188.32L136.66 183H135.74L134.58 186.48C134.5 186.73 134.44 186.93 134.41 187.07H134.39C134.36 186.93 134.31 186.73 134.22 186.48L132.94 183H131.99L133.98 187.94L133.85 188.31C133.62 188.97 133.31 189.24 132.71 189.24C132.6 189.24 132.48 189.23 132.35 189.22V189.97C132.51 190 132.66 190.01 132.81 190.01Z" fill="#FFE4D7"/>
</svg>
