<svg width="160" height="160" viewBox="0 0 160 160" fill="none" xmlns="http://www.w3.org/2000/svg">
<path fill-rule="evenodd" clip-rule="evenodd" d="M116.396 30.6848C111.948 26.7802 96.1043 18.2601 91.8779 16.4906L92.42 15.3116C92.4225 15.3119 92.425 15.3122 92.4276 15.3125C92.4272 15.3123 92.4268 15.3122 92.4263 15.312C107.118 16.4595 125.078 21.939 133.784 27.2711C136.46 26.4326 139.215 26.2168 143.332 25.8943C144.487 25.8038 145.75 25.7049 147.149 25.5814C146.917 25.9811 146.716 26.3565 146.524 26.7186C146.527 26.7183 146.529 26.7181 146.532 26.7179C146.532 26.7179 145.656 30.2867 139.38 34.8039C140.586 40.8375 136.649 64.5224 133.379 70.9964C133.379 70.9931 133.379 70.9898 133.379 70.9865C133.2 71.4309 133.022 71.8306 132.846 72.1802C132.688 61.5161 131.735 48.0516 127.787 42.2141C122.881 45.0823 119.572 46.7134 116.27 48.3415C112.536 50.1823 108.809 52.0194 102.79 55.6366L103.342 54.3785C103.689 53.9999 104.025 53.634 104.35 53.2796C105.693 51.8157 106.857 50.5469 107.908 49.3789C111.021 45.7797 112.979 43.1385 115.539 39.4179C105.069 39.998 90.0293 41.2446 79.25 43.6248L79.829 42.4511C79.8716 42.4304 79.9142 42.4098 79.9571 42.3891C88.9788 37.6037 106.266 32.3325 116.396 30.6848Z" fill="#996C5D"/>
<path fill-rule="evenodd" clip-rule="evenodd" d="M51.8245 132.407C51.8559 132.419 51.8874 132.431 51.919 132.443C51.9175 132.443 51.9161 132.443 51.9146 132.443C51.9155 132.443 51.9165 132.443 51.9174 132.444L51.3805 133.623C45.2424 133.433 40.5655 132.625 35.214 131.082C35.0059 133.953 35.2148 136.374 35.8715 139.123C35.9884 139.56 36.1054 140.004 36.218 140.459C36.2194 140.465 36.2209 140.47 36.2223 140.475C36.2215 140.474 36.2207 140.473 36.2199 140.473L35.6786 141.644C31.2149 137.244 28.4514 133.375 25.7827 127.649C20.7979 125.311 17.208 123.232 12.7969 120.511L13.3232 119.348C13.3991 119.315 13.4752 119.284 13.5515 119.253C16.443 117.963 18.9777 117.075 22.3871 116.11C21.3662 109.705 21.7467 103.81 22.619 95.7085H22.6191L23.1616 94.5402C23.162 94.5363 23.1624 94.5324 23.1629 94.5284C23.1633 94.5305 23.1637 94.5325 23.1642 94.5346L23.1665 94.5295C23.2648 94.9752 23.3617 95.4223 23.4577 95.8702C25.0919 103.22 26.6564 108.679 29.8795 114.325C34.08 113.525 37.6751 112.972 42.5547 112.246C42.548 112.256 42.5413 112.266 42.5347 112.276L41.9899 113.452C40.3728 115.833 39.1402 117.91 38.1037 120.064C37.6582 121.061 37.2459 122.087 36.8487 123.179C41.2837 127.329 45.3391 129.856 50.7196 131.983C51.0876 132.123 51.456 132.264 51.8245 132.407Z" fill="#996C5D"/>
<path fill-rule="evenodd" clip-rule="evenodd" d="M66.8041 48.7037C67.0479 48.3359 67.2907 47.9927 67.5288 47.6836C64.7706 48.0889 56.7643 51.605 51.4847 55.7686C51.4847 55.7686 47.9054 55.437 41.9888 55.6002C36.0776 55.8739 28.3872 57.3056 25.3868 58.5215C25.3882 58.5216 25.3895 58.5216 25.3908 58.5217L24.8646 59.6899C30.4154 59.9286 37.9639 61.375 41.1964 64.2042C38.7751 66.652 31.7116 74.4458 24.7332 88.4104C24.7209 88.4342 24.7085 88.4581 24.6962 88.482C24.5965 88.6786 24.5111 88.8564 24.4253 89.0348C24.3298 89.2337 24.2338 89.4335 24.1172 89.661C24.1172 89.661 39.8296 74.9176 46.641 71.2646C46.641 71.2646 50.1941 83.1395 52.6733 89.0769L53.2154 87.8873C53.2155 87.8867 53.2156 87.8862 53.2157 87.8856C53.216 87.8862 53.2163 87.8869 53.2165 87.8875C53.2165 87.8875 53.2202 87.8642 53.2276 87.8191C53.2665 87.6003 53.3087 87.3609 53.3541 87.1029C53.4505 86.5556 53.5617 85.9244 53.6879 85.2272C54.4601 81.1274 56.1505 73.1351 58.5307 67.3639C58.7318 67.2634 60.007 66.7128 64.5379 66.2745C69.5858 65.8166 76.7025 65.5588 90.2146 67.9275L90.7674 66.7588C90.7147 66.7279 90.6594 66.696 90.6015 66.6631C89.1103 65.7403 77.4849 58.7748 63.1809 56.7689C64.8412 52.2175 66.7259 48.8431 66.8041 48.7037Z" fill="#996C5D"/>
<path fill-rule="evenodd" clip-rule="evenodd" d="M96.7437 121.428C92.7079 124.202 89.116 126.339 84.3782 128.575C84.1624 126.286 84.0413 124.328 83.9255 121.738C81.1989 125.438 78.8512 128.349 75.8193 131.723C71.3036 132.995 67.5792 133.575 63.3465 133.705C62.6716 133.705 62.0184 133.713 61.3949 133.734L60.8633 134.913C63.7623 136.402 66.606 137.35 69.6104 138.014C67.1981 140.123 65.0185 141.79 62.6555 143.345C62.3398 143.544 62.0347 143.74 61.7434 143.934C61.7068 143.957 61.6701 143.98 61.6334 144.003C61.6363 144.002 61.6393 144.002 61.6423 144.001C61.6388 144.003 61.6353 144.006 61.6318 144.008L61.079 145.177C66.3745 143.929 73.3227 141.687 78.5022 138.629C81.1973 138.75 83.7134 138.571 85.561 138.202C85.561 138.202 86.1242 136.992 86.1242 137.023C86.1056 136.959 86.0849 136.896 86.0624 136.835C85.6645 135.536 85.3908 134.484 85.075 132.907C89.5883 129.344 92.9609 126.038 96.836 122.143L97.4029 120.973C97.404 120.971 97.4051 120.97 97.4061 120.969C97.4053 120.97 97.4045 120.97 97.4037 120.971L97.4045 120.969C97.1867 121.119 96.9664 121.272 96.7437 121.428Z" fill="#996C5D"/>
</svg>
