<svg width="584" height="176" viewBox="0 0 584 176" fill="none" xmlns="http://www.w3.org/2000/svg">
<path d="M452 86H450V90H452V86ZM452 90H472V86H452V90Z" fill="#CCE7FF"/>
<path d="M516 90L518 90L518 86L516 86L516 90ZM496 90L516 90L516 86L496 86L496 90Z" fill="#CCE7FF"/>
<path d="M486.335 93H489.261L485.733 83.06H482.261L478.733 93H481.659L482.289 90.97H485.705L486.335 93ZM482.891 89.01L483.549 86.854C483.717 86.308 483.871 85.846 483.983 85.09H484.011C484.123 85.846 484.277 86.308 484.445 86.854L485.103 89.01H482.891Z" fill="#5E9FEB"/>
<path fill-rule="evenodd" clip-rule="evenodd" d="M484 76C490.627 76 496 81.3726 496 88C496 94.6274 490.627 100 484 100C477.373 100 472 94.6274 472 88C472 81.3726 477.373 76 484 76Z" stroke="#5E9FEB" stroke-width="4" stroke-linecap="square"/>
<path d="M132 86H134V90H132V86ZM132 90H108V86H132V90Z" fill="#CCE7FF"/>
<path d="M68 90L66 90L66 86L68 86L68 90ZM92 90L68 90L68 86L92 86L92 90Z" fill="#CCE7FF"/>
<path d="M112 76L90 88L112 100V76Z" fill="#5E9FEB"/>
<path d="M90 76L90 100" stroke="#5E9FEB" stroke-width="4"/>
<path d="M516 22H514V26H516V22ZM516 26H536V22H516V26Z" fill="#CCE7FF"/>
<path d="M580 26L582 26L582 22L580 22L580 26ZM560 26L580 26L580 22L560 22L560 26Z" fill="#CCE7FF"/>
<path d="M549.462 29V19.06H546.536V29H549.462Z" fill="#5E9FEB"/>
<path fill-rule="evenodd" clip-rule="evenodd" d="M548 12C554.627 12 560 17.3726 560 24C560 30.6274 554.627 36 548 36C541.373 36 536 30.6274 536 24C536 17.3726 541.373 12 548 12Z" stroke="#5E9FEB" stroke-width="4" stroke-linecap="square"/>
<path d="M4 22H2V26H4V22ZM4 26H24V22H4V26Z" fill="#CCE7FF"/>
<path d="M68 26L70 26L70 22L68 22L68 26ZM48 26L68 26L68 22L48 22L48 26Z" fill="#CCE7FF"/>
<path d="M35.4389 26.9V24.954H39.4289V22.896H35.4389V21.16H39.6669V19.06H32.5129V29H39.7649V26.9H35.4389Z" fill="#5E9FEB"/>
<path fill-rule="evenodd" clip-rule="evenodd" d="M36 12C42.6274 12 48 17.3726 48 24C48 30.6274 42.6274 36 36 36C29.3726 36 24 30.6274 24 24C24 17.3726 29.3726 12 36 12Z" stroke="#5E9FEB" stroke-width="4" stroke-linecap="square"/>
<path d="M516 150H514V154H516V150ZM516 154H536V150H516V154Z" fill="#CCE7FF"/>
<path d="M580 154L582 154L582 150L580 150L580 154ZM560 154L580 154L580 150L560 150L560 154Z" fill="#CCE7FF"/>
<path d="M544.985 157H551.649V154.648H547.911V147.06H544.985V157Z" fill="#5E9FEB"/>
<path fill-rule="evenodd" clip-rule="evenodd" d="M548 140C554.627 140 560 145.373 560 152C560 158.627 554.627 164 548 164C541.373 164 536 158.627 536 152C536 145.373 541.373 140 548 140Z" stroke="#5E9FEB" stroke-width="4" stroke-linecap="square"/>
<path d="M4 150H2V154H4V150ZM4 154H24V150H4V154Z" fill="#CCE7FF"/>
<path d="M68 154L70 154L70 150L68 150L68 154ZM48 154L68 154L68 150L48 150L48 154Z" fill="#CCE7FF"/>
<path d="M30.3869 157H32.8369V150.728C32.8369 150.336 32.8089 149.944 32.7809 149.594H32.8089C32.8369 149.888 32.9069 150.21 32.9769 150.448L34.7549 157H37.1349L38.8009 150.448C38.8569 150.224 38.9269 149.888 38.9549 149.566H38.9829C38.9549 149.972 38.9409 150.364 38.9409 150.728V157H41.6149V147.06H37.5549L36.2809 152.254C36.1549 152.744 36.0569 153.29 36.0289 153.64H36.0009C35.9729 153.29 35.8889 152.758 35.7629 152.282L34.3909 147.06H30.3869V157Z" fill="#5E9FEB"/>
<path fill-rule="evenodd" clip-rule="evenodd" d="M36 140C42.6274 140 48 145.373 48 152C48 158.627 42.6274 164 36 164C29.3726 164 24 158.627 24 152C24 145.373 29.3726 140 36 140Z" stroke="#5E9FEB" stroke-width="4" stroke-linecap="square"/>
<path d="M516 88L516 24" stroke="#CCE7FF" stroke-width="4" stroke-linecap="square"/>
<path d="M68 88L68 24" stroke="#CCE7FF" stroke-width="4" stroke-linecap="square"/>
<path d="M516 152L516 88" stroke="#CCE7FF" stroke-width="4" stroke-linecap="square"/>
<path d="M580 24L644 24" stroke="#CCE7FF" stroke-width="4" stroke-linecap="square"/>
<path d="M-60 24L4 24" stroke="#CCE7FF" stroke-width="4" stroke-linecap="square"/>
<path d="M580 152H644" stroke="#CCE7FF" stroke-width="4" stroke-linecap="square"/>
<path d="M-60 152H4" stroke="#CCE7FF" stroke-width="4" stroke-linecap="square"/>
<path d="M68 152L68 88" stroke="#CCE7FF" stroke-width="4" stroke-linecap="square"/>
<path d="M388 86H386V90H388V86ZM388 90H400V86H388V90Z" fill="#CCE7FF"/>
<path d="M400 88H440" stroke="#5E9FEB" stroke-width="4" stroke-linecap="square"/>
<path d="M452 90L454 90L454 86L452 86L452 90ZM440 90L452 90L452 86L440 86L440 90Z" fill="#CCE7FF"/>
<rect x="400" y="78" width="38" height="20" stroke="#5E9FEB" stroke-width="4"/>
<path d="M132 86H130V90H132V86ZM132 90H144V86H132V90Z" fill="#CCE7FF"/>
<path d="M144 88H184" stroke="#5E9FEB" stroke-width="4" stroke-linecap="square"/>
<path d="M196 90L198 90L198 86L196 86L196 90ZM184 90L196 90L196 86L184 86L184 90Z" fill="#CCE7FF"/>
<rect x="144" y="78" width="38" height="20" stroke="#5E9FEB" stroke-width="4"/>
<path d="M324 86H322V90H324V86ZM324 90H340V86H324V90Z" fill="#CCE7FF"/>
<path d="M388 90L390 90L390 86L388 86L388 90ZM372 90L388 90L388 86L372 86L372 90Z" fill="#CCE7FF"/>
<circle cx="344" cy="88" r="4" stroke="#CCE7FF" stroke-width="4" stroke-linecap="square"/>
<circle cx="368" cy="88" r="4" stroke="#CCE7FF" stroke-width="4" stroke-linecap="square"/>
<path d="M356 100L356 76" stroke="#CCE7FF" stroke-width="4" stroke-linecap="square"/>
<path d="M196 86H194V90H196V86ZM196 90H212V86H196V90Z" fill="#CCE7FF"/>
<path d="M260 90L262 90L262 86L260 86L260 90ZM244 90L260 90L260 86L244 86L244 90Z" fill="#CCE7FF"/>
<circle cx="216" cy="88" r="4" stroke="#CCE7FF" stroke-width="4" stroke-linecap="square"/>
<circle cx="240" cy="88" r="4" stroke="#CCE7FF" stroke-width="4" stroke-linecap="square"/>
<path d="M228 100L228 76" stroke="#CCE7FF" stroke-width="4" stroke-linecap="square"/>
<path d="M260 86H258V90H260V86ZM260 90H276V86H260V90Z" fill="#CCE7FF"/>
<path d="M324 90L326 90L326 86L324 86L324 90ZM308 90L324 90L324 86L308 86L308 90Z" fill="#CCE7FF"/>
<path fill-rule="evenodd" clip-rule="evenodd" d="M292 72C300.837 72 308 79.1634 308 88C308 96.8366 300.837 104 292 104C283.163 104 276 96.8366 276 88C276 79.1634 283.163 72 292 72Z" fill="#0049B8" stroke="#0049B8" stroke-width="4" stroke-linecap="square"/>
</svg>
