<svg width="440" height="208" viewBox="0 0 440 208" fill="none" xmlns="http://www.w3.org/2000/svg">
<path d="M68 150H66V154H68V150ZM68 154H84V150H68V154Z" fill="#F5FAFF"/>
<path d="M132 154L134 154L134 150L132 150L132 154ZM116 154L132 154L132 150L116 150L116 154Z" fill="#F5FAFF"/>
<circle cx="88" cy="152" r="4" stroke="#F5FAFF" stroke-width="4" stroke-linecap="square"/>
<circle cx="112" cy="152" r="4" stroke="#F5FAFF" stroke-width="4" stroke-linecap="square"/>
<path d="M100 164L100 140" stroke="#F5FAFF" stroke-width="4" stroke-linecap="square"/>
<path d="M188 150H186V154H188V150ZM188 154H204V150H188V154Z" fill="#F5FAFF"/>
<path d="M252 154L254 154L254 150L252 150L252 154ZM236 154L252 154L252 150L236 150L236 154Z" fill="#F5FAFF"/>
<circle cx="208" cy="152" r="4" stroke="#F5FAFF" stroke-width="4" stroke-linecap="square"/>
<circle cx="232" cy="152" r="4" stroke="#F5FAFF" stroke-width="4" stroke-linecap="square"/>
<path d="M212 152H228" stroke="#F5FAFF" stroke-width="4" stroke-linecap="square"/>
<path d="M308 152H372" stroke="#F5FAFF" stroke-width="4" stroke-linecap="square"/>
<path d="M336 136L336 168" stroke="#F5FAFF" stroke-width="4" stroke-linecap="square"/>
<path d="M344 144L344 160" stroke="#F5FAFF" stroke-width="4" stroke-linecap="square"/>
<path d="M128 104L128 106L132 106L132 104L128 104ZM132 104L132 84L128 84L128 104L132 104Z" fill="#F5FAFF"/>
<path d="M132 40L132 38L128 38L128 40L132 40ZM132 60L132 40L128 40L128 60L132 60Z" fill="#F5FAFF"/>
<path fill-rule="evenodd" clip-rule="evenodd" d="M118 72C118 65.3726 123.373 60 130 60C136.627 60 142 65.3726 142 72C142 78.6274 136.627 84 130 84C123.373 84 118 78.6274 118 72Z" stroke="#FFB41F" stroke-width="4" stroke-linecap="square"/>
<path d="M122 80L138 64" stroke="#FFB41F" stroke-width="4"/>
<path d="M138 80L122 64" stroke="#FFB41F" stroke-width="4"/>
<path d="M248 104L248 106L252 106L252 104L248 104ZM252 104L252 84L248 84L248 104L252 104Z" fill="#F5FAFF"/>
<path d="M252 40L252 38L248 38L248 40L252 40ZM252 60L252 40L248 40L248 60L252 60Z" fill="#F5FAFF"/>
<path d="M255 73.7207L255 70.2767L245.06 66.9867L245.06 70.1367L250.968 71.6907C251.57 71.8447 251.948 71.9287 252.354 71.9707L252.354 72.0267C251.948 72.0687 251.57 72.1527 250.968 72.3067L245.06 73.8607L245.06 77.0107L255 73.7207Z" fill="#0049B8"/>
<path fill-rule="evenodd" clip-rule="evenodd" d="M238 72C238 65.3726 243.373 60 250 60C256.627 60 262 65.3726 262 72C262 78.6274 256.627 84 250 84C243.373 84 238 78.6274 238 72Z" stroke="#0049B8" stroke-width="4" stroke-linecap="square"/>
<path d="M308 104L308 106L312 106L312 104L308 104ZM312 104L312 84L308 84L308 104L312 104Z" fill="#F5FAFF"/>
<path d="M312 40L312 38L308 38L308 40L312 40ZM312 60L312 40L308 40L308 60L312 60Z" fill="#F5FAFF"/>
<path d="M315 77.6131L315 75.1631L308.728 75.1631C308.336 75.1631 307.944 75.1911 307.594 75.2191L307.594 75.1911C307.888 75.1631 308.21 75.0931 308.448 75.0231L315 73.2451L315 70.8651L308.448 69.1991C308.224 69.1431 307.888 69.0731 307.566 69.0451L307.566 69.0171C307.972 69.0451 308.364 69.0591 308.728 69.0591L315 69.0591L315 66.3851L305.06 66.3851L305.06 70.4451L310.254 71.7191C310.744 71.8451 311.29 71.9431 311.64 71.9711L311.64 71.9991C311.29 72.0271 310.758 72.1111 310.282 72.2371L305.06 73.6091L305.06 77.6131L315 77.6131Z" fill="#0049B8"/>
<path fill-rule="evenodd" clip-rule="evenodd" d="M298 72C298 65.3726 303.373 60 310 60C316.627 60 322 65.3726 322 72C322 78.6274 316.627 84 310 84C303.373 84 298 78.6274 298 72Z" stroke="#0049B8" stroke-width="4" stroke-linecap="square"/>
<path d="M368 104L368 106L372 106L372 104L368 104ZM372 104L372 84L368 84L368 104L372 104Z" fill="#F5FAFF"/>
<path d="M372 40L372 38L368 38L368 40L372 40ZM372 60L372 40L368 40L368 60L372 60Z" fill="#F5FAFF"/>
<path d="M375.238 72.559C375.238 71.061 374.678 69.969 373.628 69.437L375 69.367L375 67.309L369.274 67.309L369.274 72.181L371.304 72.181L371.304 69.997L371.528 69.997C372.34 69.997 373.04 70.865 373.04 71.859C373.04 73.245 371.99 74.001 370.002 74.001C368.07 74.001 366.964 73.217 366.964 71.887C366.964 70.977 367.482 70.361 368.476 70.179L367.902 67.267C365.942 67.659 364.822 69.353 364.822 71.887C364.822 74.995 366.88 77.011 370.058 77.011C373.292 77.011 375.238 75.331 375.238 72.559Z" fill="#0049B8"/>
<path fill-rule="evenodd" clip-rule="evenodd" d="M358 72C358 65.3726 363.373 60 370 60C376.627 60 382 65.3726 382 72C382 78.6274 376.627 84 370 84C363.373 84 358 78.6274 358 72Z" stroke="#0049B8" stroke-width="4" stroke-linecap="square"/>
<path d="M188 104L188 106L192 106L192 104L188 104ZM192 104L192 80L188 80L188 104L192 104Z" fill="#F5FAFF"/>
<path d="M192 40L192 38L188 38L188 40L192 40ZM192 64L192 40L188 40L188 64L192 64Z" fill="#F5FAFF"/>
<path d="M178 84L190 62L202 84L178 84Z" fill="#FFB41F"/>
<path d="M178 62L202 62" stroke="#FFB41F" stroke-width="4"/>
<path d="M68 104L68 106L72 106L72 104L68 104ZM72 104L72 92L68 92L68 104L72 104Z" fill="#F5FAFF"/>
<path d="M70 92L70 52" stroke="#D62B36" stroke-width="4" stroke-linecap="square"/>
<path d="M72 40L72 38L68 38L68 40L72 40ZM72 52L72 40L68 40L68 52L72 52Z" fill="#F5FAFF"/>
<rect x="60" y="92" width="38" height="20" transform="rotate(-90 60 92)" stroke="#D62B36" stroke-width="4"/>
</svg>
