<svg width="416" height="208" viewBox="0 0 416 208" fill="none" xmlns="http://www.w3.org/2000/svg">
<path d="M68 150H66V154H68V150ZM68 154H84V150H68V154Z" fill="#F2F9FF"/>
<path d="M132 154L134 154L134 150L132 150L132 154ZM116 154L132 154L132 150L116 150L116 154Z" fill="#F2F9FF"/>
<circle cx="88" cy="152" r="4" stroke="#F2F9FF" stroke-width="4" stroke-linecap="square"/>
<circle cx="112" cy="152" r="4" stroke="#F2F9FF" stroke-width="4" stroke-linecap="square"/>
<path d="M100 164L100 140" stroke="#F2F9FF" stroke-width="4" stroke-linecap="square"/>
<path d="M176 150H174V154H176V150ZM176 154H192V150H176V154Z" fill="#F2F9FF"/>
<path d="M240 154L242 154L242 150L240 150L240 154ZM224 154L240 154L240 150L224 150L224 154Z" fill="#F2F9FF"/>
<circle cx="196" cy="152" r="4" stroke="#F2F9FF" stroke-width="4" stroke-linecap="square"/>
<circle cx="220" cy="152" r="4" stroke="#F2F9FF" stroke-width="4" stroke-linecap="square"/>
<path d="M200 152H216" stroke="#F2F9FF" stroke-width="4" stroke-linecap="square"/>
<path d="M284 152H348" stroke="#F2F9FF" stroke-width="4" stroke-linecap="square"/>
<path d="M312 136L312 168" stroke="#F2F9FF" stroke-width="4" stroke-linecap="square"/>
<path d="M320 144L320 160" stroke="#F2F9FF" stroke-width="4" stroke-linecap="square"/>
<path d="M116 104L116 106L120 106L120 104L116 104ZM120 104L120 84L116 84L116 104L120 104Z" fill="#F2F9FF"/>
<path d="M120 40L120 38L116 38L116 40L120 40ZM120 60L120 40L116 40L116 60L120 60Z" fill="#F2F9FF"/>
<path fill-rule="evenodd" clip-rule="evenodd" d="M106 72C106 65.3726 111.373 60 118 60C124.627 60 130 65.3726 130 72C130 78.6274 124.627 84 118 84C111.373 84 106 78.6274 106 72Z" stroke="#FFB41F" stroke-width="4" stroke-linecap="square"/>
<path d="M110 80L126 64" stroke="#FFB41F" stroke-width="4"/>
<path d="M126 80L110 64" stroke="#FFB41F" stroke-width="4"/>
<path d="M236 104L236 106L240 106L240 104L236 104ZM240 104L240 84L236 84L236 104L240 104Z" fill="#F2F9FF"/>
<path d="M240 40L240 38L236 38L236 40L240 40ZM240 60L240 40L236 40L236 60L240 60Z" fill="#F2F9FF"/>
<path d="M243 73.7207L243 70.2767L233.06 66.9867L233.06 70.1367L238.968 71.6907C239.57 71.8447 239.948 71.9287 240.354 71.9707L240.354 72.0267C239.948 72.0687 239.57 72.1527 238.968 72.3067L233.06 73.8607L233.06 77.0107L243 73.7207Z" fill="#0049B8"/>
<path fill-rule="evenodd" clip-rule="evenodd" d="M226 72C226 65.3726 231.373 60 238 60C244.627 60 250 65.3726 250 72C250 78.6274 244.627 84 238 84C231.373 84 226 78.6274 226 72Z" stroke="#0049B8" stroke-width="4" stroke-linecap="square"/>
<path d="M296 104L296 106L300 106L300 104L296 104ZM300 104L300 84L296 84L296 104L300 104Z" fill="#F2F9FF"/>
<path d="M300 40L300 38L296 38L296 40L300 40ZM300 60L300 40L296 40L296 60L300 60Z" fill="#F2F9FF"/>
<path d="M303 77.6131L303 75.1631L296.728 75.1631C296.336 75.1631 295.944 75.1911 295.594 75.2191L295.594 75.1911C295.888 75.1631 296.21 75.0931 296.448 75.0231L303 73.2451L303 70.8651L296.448 69.1991C296.224 69.1431 295.888 69.0731 295.566 69.0451L295.566 69.0171C295.972 69.0451 296.364 69.0591 296.728 69.0591L303 69.0591L303 66.3851L293.06 66.3851L293.06 70.4451L298.254 71.7191C298.744 71.8451 299.29 71.9431 299.64 71.9711L299.64 71.9991C299.29 72.0271 298.758 72.1111 298.282 72.2371L293.06 73.6091L293.06 77.6131L303 77.6131Z" fill="#0049B8"/>
<path fill-rule="evenodd" clip-rule="evenodd" d="M286 72C286 65.3726 291.373 60 298 60C304.627 60 310 65.3726 310 72C310 78.6274 304.627 84 298 84C291.373 84 286 78.6274 286 72Z" stroke="#0049B8" stroke-width="4" stroke-linecap="square"/>
<path d="M356 104L356 106L360 106L360 104L356 104ZM360 104L360 84L356 84L356 104L360 104Z" fill="#F2F9FF"/>
<path d="M360 40L360 38L356 38L356 40L360 40ZM360 60L360 40L356 40L356 60L360 60Z" fill="#F2F9FF"/>
<path d="M363.238 72.559C363.238 71.061 362.678 69.969 361.628 69.437L363 69.367L363 67.309L357.274 67.309L357.274 72.181L359.304 72.181L359.304 69.997L359.528 69.997C360.34 69.997 361.04 70.865 361.04 71.859C361.04 73.245 359.99 74.001 358.002 74.001C356.07 74.001 354.964 73.217 354.964 71.887C354.964 70.977 355.482 70.361 356.476 70.179L355.902 67.267C353.942 67.659 352.822 69.353 352.822 71.887C352.822 74.995 354.88 77.011 358.058 77.011C361.292 77.011 363.238 75.331 363.238 72.559Z" fill="#0049B8"/>
<path fill-rule="evenodd" clip-rule="evenodd" d="M346 72C346 65.3726 351.373 60 358 60C364.627 60 370 65.3726 370 72C370 78.6274 364.627 84 358 84C351.373 84 346 78.6274 346 72Z" stroke="#0049B8" stroke-width="4" stroke-linecap="square"/>
<path d="M176 104L176 106L180 106L180 104L176 104ZM180 104L180 80L176 80L176 104L180 104Z" fill="#F2F9FF"/>
<path d="M180 40L180 38L176 38L176 40L180 40ZM180 64L180 40L176 40L176 64L180 64Z" fill="#F2F9FF"/>
<path d="M166 84L178 62L190 84L166 84Z" fill="#FFB41F"/>
<path d="M166 62L190 62" stroke="#FFB41F" stroke-width="4"/>
<path d="M56 104L56 106L60 106L60 104L56 104ZM60 104L60 92L56 92L56 104L60 104Z" fill="#F2F9FF"/>
<path d="M58 92L58 52" stroke="#D62B36" stroke-width="4" stroke-linecap="square"/>
<path d="M60 40L60 38L56 38L56 40L60 40ZM60 52L60 40L56 40L56 52L60 52Z" fill="#F2F9FF"/>
<rect x="48" y="92" width="38" height="20" transform="rotate(-90 48 92)" stroke="#D62B36" stroke-width="4"/>
</svg>
