<svg width="208" height="208" viewBox="0 0 208 208" fill="none" xmlns="http://www.w3.org/2000/svg">
<path d="M50.1061 49.432C53.2021 49.432 55.5061 47.92 56.3701 45.4C56.4061 46.732 56.5141 48.028 56.6941 49H59.3221C58.9261 47.524 58.7461 45.508 58.7461 42.7V38.02C58.7461 32.8 56.6581 30.568 51.8341 30.568C47.6941 30.568 44.8861 32.908 44.6701 36.616H47.3701C47.5141 34.06 49.1701 32.656 51.8701 32.656C54.9301 32.656 56.2261 34.132 56.2261 37.84V38.128L52.2301 38.596C49.3861 38.956 47.6221 39.46 46.3261 40.216C44.8861 41.116 44.1301 42.52 44.1301 44.248C44.1301 47.344 46.5061 49.432 50.1061 49.432ZM50.6821 47.344C48.2701 47.344 46.7581 46.12 46.7581 44.176C46.7581 42.196 48.0901 41.152 51.1501 40.72L56.2621 40V41.152C56.2621 44.824 54.0301 47.344 50.6821 47.344ZM72.6532 49.432C77.1892 49.432 80.1412 45.652 80.1412 40C80.1412 34.42 77.2612 30.568 72.8332 30.568C69.8452 30.568 67.7212 32.26 66.7852 34.672V22.9H64.3012V49H66.2092L66.6772 45.4C67.5772 47.776 69.8092 49.432 72.6532 49.432ZM72.0052 47.2C68.7652 47.2 66.7492 44.5 66.7492 40.504V39.64C66.7492 35.5 68.8012 32.8 72.0772 32.8C75.5332 32.8 77.4772 35.644 77.4772 40C77.4772 44.392 75.4252 47.2 72.0052 47.2ZM90.7652 49.432C94.7252 49.432 97.3892 47.056 98.0372 42.988L95.6252 42.628C95.1572 45.616 93.4652 47.236 90.7652 47.236C87.3092 47.236 85.2572 44.572 85.2572 39.964C85.2572 35.464 87.3092 32.764 90.6572 32.764C93.3932 32.764 95.1212 34.384 95.4812 37.372L98.0372 37.084C97.6052 32.98 94.8692 30.568 90.7652 30.568C85.7252 30.568 82.5932 34.132 82.5932 40C82.5932 45.796 85.7612 49.432 90.7652 49.432ZM107.958 49.432C110.838 49.432 112.998 47.848 114.042 45.184V49H116.418V22.9H113.898V34.276C112.818 31.756 110.838 30.568 108.246 30.568C103.674 30.568 100.542 34.456 100.542 40C100.542 45.616 103.494 49.432 107.958 49.432ZM108.57 47.2C105.222 47.2 103.206 44.464 103.206 40C103.206 35.5 105.222 32.8 108.606 32.8C111.954 32.8 113.934 35.536 113.934 39.64V40.396C113.934 44.392 111.882 47.2 108.57 47.2ZM136.295 38.92C136.295 33.448 133.523 30.568 128.699 30.568C123.731 30.568 120.707 34.204 120.707 40.108C120.707 46.156 123.695 49.432 128.807 49.432C132.443 49.432 135.071 47.56 136.187 44.212L134.063 43.348C133.307 45.796 131.507 47.2 128.987 47.2C125.495 47.2 123.263 44.716 123.227 40.648H136.295V38.92ZM133.739 38.596H123.227C123.299 34.888 125.315 32.584 128.663 32.584C131.867 32.584 133.739 34.564 133.739 38.272V38.596ZM148.128 31H143.448V28.336C143.448 25.996 144.312 24.916 146.328 24.916C146.904 24.916 147.516 24.988 148.128 25.096V22.936C147.516 22.756 146.796 22.684 146.004 22.684C142.872 22.684 140.964 24.772 140.964 28.012V31H137.58V33.088H140.964V49H143.448V33.088H148.128V31ZM163.819 30.316C164.251 30.316 164.611 30.388 164.935 30.46V28.228C164.575 28.156 164.251 28.12 163.891 28.12C161.551 28.12 160.183 29.488 159.643 31.36C158.671 30.856 157.483 30.568 156.115 30.568C152.083 30.568 149.563 33.124 149.563 36.616C149.563 38.416 150.247 39.964 151.435 41.08C149.887 41.656 148.879 42.844 148.879 44.536C148.879 45.868 149.527 47.02 151.039 47.632C149.095 48.244 148.051 49.72 148.051 51.448C148.051 54.184 150.067 56.452 156.079 56.452C162.091 56.452 164.755 54.22 164.755 50.836C164.755 47.704 162.775 45.94 158.887 45.94H154.171C152.011 45.94 151.111 45.04 151.111 43.888C151.111 42.952 151.759 42.268 152.659 41.908C153.631 42.412 154.783 42.7 156.115 42.7C160.183 42.7 162.667 40.108 162.667 36.616C162.667 34.852 162.019 33.34 160.867 32.26C161.335 31 162.343 30.316 163.819 30.316ZM156.115 40.756C153.595 40.756 151.939 39.028 151.939 36.616C151.939 34.204 153.595 32.512 156.115 32.512C158.635 32.512 160.291 34.24 160.291 36.652C160.291 39.064 158.635 40.756 156.115 40.756ZM158.347 48.136C160.939 48.136 162.235 49.144 162.235 50.98C162.235 52.96 160.831 54.364 156.367 54.364C152.839 54.364 150.499 53.428 150.499 51.016C150.499 49.792 151.219 48.64 152.695 48.064C153.127 48.1 153.595 48.136 154.099 48.136H158.347ZM60.6352 85H63.1192V75.532C63.1192 71.32 65.1712 68.728 68.4472 68.728C71.2912 68.728 72.7672 70.528 72.7672 73.984V85H75.2872V73.84C75.2872 69.016 73.1992 66.496 69.2752 66.496C66.3232 66.496 64.1632 68.008 63.1192 70.816V58.9H60.6352V85ZM80.3689 63.76H83.2129V59.8H80.3689V63.76ZM80.5489 85H83.0329V67H80.5489V85ZM88.5413 63.76H91.3853V59.8H88.5413V63.76ZM86.8133 92.272C90.0893 92.272 91.2413 89.968 91.2413 87.124V67H88.7213V86.872C88.7213 89.32 87.8933 89.968 86.4533 89.968C86.0933 89.968 85.6613 89.968 84.7253 89.896V92.056C85.2653 92.2 86.2013 92.272 86.8133 92.272ZM109.101 85H112.197L105.105 73.912L111.729 67H108.417L99.7051 76.396V58.9H97.2211V85H99.7051V79.348L103.341 75.712L109.101 85ZM118.147 58.9H115.663V85H118.147V58.9ZM124.15 67V85H126.634V74.488C126.634 70.96 128.398 68.728 131.134 68.728C133.51 68.728 134.878 70.384 134.878 73.3V85H137.362V74.056C137.362 70.744 139.054 68.728 141.79 68.728C144.274 68.728 145.57 70.384 145.57 73.444V85H148.09V73.228C148.09 68.98 146.074 66.496 142.546 66.496C139.99 66.496 138.082 67.828 137.002 70.42C136.246 67.9 134.41 66.496 131.818 66.496C129.262 66.496 127.39 67.9 126.49 70.492V67H124.15ZM47.7364 117H50.2204V107.532C50.2204 103.32 52.2724 100.728 55.5124 100.728C58.3564 100.728 59.8684 102.528 59.8684 106.02V117H62.3884V105.876C62.3884 101.016 60.3004 98.496 56.2684 98.496C53.2804 98.496 51.1924 100.008 50.1124 102.96V99H47.7364V117ZM74.2424 117.432C79.2104 117.432 82.4864 113.868 82.4864 108C82.4864 102.132 79.2104 98.568 74.2424 98.568C69.2384 98.568 65.9624 102.132 65.9624 108C65.9624 113.868 69.2384 117.432 74.2424 117.432ZM74.2424 115.236C70.7504 115.236 68.6264 112.68 68.6264 108C68.6264 103.32 70.7504 100.764 74.2424 100.764C77.6984 100.764 79.8224 103.32 79.8224 108C79.8224 112.68 77.6984 115.236 74.2424 115.236ZM86.6231 124.02H89.1071V113.616C89.9351 115.776 92.0591 117.432 94.9751 117.432C99.4031 117.432 102.463 113.724 102.463 108C102.463 102.348 99.5831 98.568 95.1551 98.568C92.3111 98.568 90.0791 100.116 88.9991 102.816V99H86.6231V124.02ZM94.3991 115.2C91.0871 115.2 89.0711 112.392 89.0711 108.36V107.568C89.0711 103.608 91.1591 100.8 94.5431 100.8C97.8551 100.8 99.7991 103.536 99.7991 108C99.7991 112.464 97.7471 115.2 94.3991 115.2ZM118.275 124.02H120.795V99H118.923L118.383 102.384C117.303 99.792 115.359 98.568 112.587 98.568C108.123 98.568 104.919 102.312 104.919 108C104.919 113.724 107.907 117.432 112.335 117.432C115.179 117.432 117.339 115.848 118.275 113.4V124.02ZM112.911 115.2C109.563 115.2 107.583 112.428 107.583 108C107.583 103.5 109.635 100.8 112.947 100.8C116.331 100.8 118.311 103.536 118.311 107.568V108.468C118.311 112.464 116.223 115.2 112.911 115.2ZM128.94 103.392V99H126.6V117H129.084V108.756C129.084 106.488 129.408 104.076 131.064 102.42C131.964 101.556 133.188 101.052 134.916 101.052H135.204V98.604C134.952 98.568 134.772 98.568 134.52 98.568C131.748 98.568 129.768 100.62 128.94 103.392ZM143.946 117.432C148.158 117.432 150.642 115.38 150.642 112.032C150.642 109.224 149.202 107.424 145.71 106.992L142.83 106.632C140.454 106.344 139.41 105.336 139.41 103.644C139.41 101.736 140.922 100.62 143.514 100.62C146.142 100.62 147.726 102.096 148.122 104.616L150.606 104.112C150.246 100.62 147.546 98.568 143.55 98.568C139.446 98.568 136.926 100.548 136.926 103.752C136.926 106.488 138.582 108.36 142.038 108.792L144.918 109.116C147.114 109.404 148.122 110.304 148.122 112.248C148.122 114.192 146.682 115.344 144.054 115.344C141.138 115.344 139.338 113.904 138.87 110.988L136.35 111.42C136.926 115.344 139.698 117.432 143.946 117.432ZM151.889 101.088H155.201V111.996C155.201 115.2 156.389 117.324 159.881 117.324C160.889 117.324 161.609 117.216 162.365 117V114.696C161.753 114.84 161.249 114.948 160.529 114.948C158.657 114.948 157.721 114.012 157.721 111.888V101.088H162.365V99H157.721V93.168L155.201 94.248V99H151.889V101.088ZM57.9501 149.432C60.6861 149.432 62.9541 147.668 63.7821 145.292V149H66.1581V131H63.6381V140.828C63.6381 144.464 61.6581 147.272 58.3821 147.272C55.9341 147.272 54.2781 145.688 54.2781 142.16V131H51.7941V142.412C51.7941 146.696 53.4501 149.432 57.9501 149.432ZM75.6419 149H78.3779L85.0379 131H82.3019L77.8379 143.744C77.5139 144.752 77.2259 145.58 77.0459 146.408H76.9379C76.7579 145.58 76.5059 144.752 76.1819 143.744L71.7179 131H68.9819L75.6419 149ZM90.5458 149H93.2818L97.0258 135.536C97.1698 134.96 97.3498 134.132 97.4578 133.556H97.4938C97.6018 134.132 97.7818 134.96 97.9258 135.536L101.67 149H104.406L109.59 131H106.998L103.434 144.284C103.29 144.932 103.11 145.688 103.002 146.444H102.93C102.786 145.688 102.57 144.932 102.426 144.284L98.7898 131H96.1258L92.5258 144.284C92.3458 144.932 92.1298 145.688 92.0218 146.444H91.9498C91.8418 145.688 91.6618 144.932 91.5178 144.284L87.9538 131H85.3618L90.5458 149ZM110.16 149H113.148L117.108 143.24C117.72 142.304 118.08 141.656 118.296 141.26H118.332C118.512 141.656 118.908 142.376 119.448 143.204L123.444 149H126.432L119.916 139.856L125.964 131H122.868L119.556 136.184C118.98 137.048 118.62 137.696 118.368 138.2H118.332C118.08 137.732 117.72 137.12 117.108 136.184L113.616 131H110.628L116.784 139.676L110.16 149ZM129.714 156.236C132.702 156.236 134.682 154.616 136.302 150.152L143.322 131H140.622L136.23 143.816C135.906 144.788 135.654 145.616 135.474 146.3H135.402C135.222 145.616 134.97 144.788 134.61 143.852L129.786 131H126.978L134.178 148.856L133.71 150.188C132.846 152.672 131.73 153.968 129.39 153.968C128.994 153.968 128.562 153.932 128.13 153.86V156.092C128.67 156.2 129.174 156.236 129.714 156.236ZM144.071 147.056V149H157.895V146.84H147.203L157.391 132.872V131H144.503V133.124H154.367L144.071 147.056Z" fill="white"/>
<path d="M44.2419 176H45.9419L43.3619 168.9H41.4319L38.8519 176H40.5419L41.0819 174.34H43.7019L44.2419 176ZM41.4719 173.15L42.1219 171.17C42.2219 170.86 42.3119 170.59 42.3819 170.17H42.4019C42.4719 170.59 42.5619 170.86 42.6619 171.17L43.3119 173.15H41.4719ZM46.7452 171V176H48.3552V173.14C48.3552 172.47 48.6252 172.1 49.1052 172.1C49.5452 172.1 49.7652 172.41 49.7652 173.06V176H51.3652V173.13C51.3652 172.46 51.6352 172.1 52.1152 172.1C52.5752 172.1 52.7852 172.4 52.7852 173.07V176H54.3852V172.73C54.3852 171.56 53.8152 170.87 52.8452 170.87C52.1252 170.87 51.6052 171.21 51.2452 171.91C50.9952 171.2 50.5352 170.87 49.8252 170.87C49.0852 170.87 48.6052 171.21 48.2852 171.9V171H46.7452ZM60.2517 173.38C60.2517 171.79 59.3717 170.88 57.8017 170.88C56.2417 170.88 55.2617 171.91 55.2617 173.55C55.2617 175.17 56.2617 176.12 57.9117 176.12C58.9517 176.12 59.8017 175.63 60.2017 174.81L59.0217 174.27C58.7917 174.73 58.4217 174.97 57.9317 174.97C57.2617 174.97 56.7917 174.54 56.7817 173.86H60.2517V173.38ZM58.7017 172.96H56.7817C56.8017 172.25 57.1517 171.83 57.7717 171.83C58.3717 171.83 58.7017 172.21 58.7017 172.92V172.96ZM62.7669 172.29V171H61.2569V176H62.8669V173.96C62.8669 173.45 62.9469 173 63.2669 172.7C63.4869 172.51 63.8069 172.4 64.2369 172.4C64.3569 172.4 64.4369 172.4 64.5369 172.41V170.88H64.4369C63.5769 170.88 63.0269 171.39 62.7669 172.29ZM65.358 170.28H67.028V168.82H65.358V170.28ZM65.378 176H66.988V171H65.378V176ZM70.5772 176.12C71.8572 176.12 72.7872 175.43 72.9672 174.33L71.4672 174C71.3772 174.6 71.0672 174.93 70.5672 174.93C69.9372 174.93 69.5772 174.39 69.5772 173.45C69.5772 172.58 69.9472 172.06 70.5572 172.06C71.0472 172.06 71.3672 172.37 71.4572 172.96L72.9672 172.65C72.7772 171.52 71.9072 170.88 70.5972 170.88C68.9572 170.88 67.9472 171.87 67.9472 173.5C67.9472 175.09 68.9972 176.12 70.5772 176.12ZM75.2134 176.12C75.9934 176.12 76.6334 175.77 76.8834 175.21C76.8934 175.49 76.9134 175.76 76.9634 176H78.5234C78.4334 175.69 78.3834 175.2 78.3834 174.61V172.95C78.3834 171.51 77.6634 170.88 76.0534 170.88C74.6334 170.88 73.7334 171.54 73.6534 172.65H75.2434C75.2734 172.17 75.5534 171.91 76.0434 171.91C76.5434 171.91 76.7834 172.16 76.7834 172.73V172.9L75.5734 173.07C74.8134 173.17 74.3334 173.33 74.0034 173.56C73.6634 173.8 73.4934 174.17 73.4934 174.64C73.4934 175.53 74.1834 176.12 75.2134 176.12ZM75.8134 175.1C75.3934 175.1 75.1134 174.87 75.1134 174.52C75.1134 174.15 75.3834 173.94 75.9734 173.83L76.8334 173.69V174.09C76.8334 174.69 76.4234 175.1 75.8134 175.1ZM79.9458 177.55C80.8858 177.26 81.2458 176.74 81.2458 175.91V174.36H79.5358V176H80.3358V176.02C80.3358 176.47 80.1958 176.7 79.6158 176.89L79.9458 177.55ZM85.0281 176H86.4681V171.16C86.4681 170.88 86.4481 170.61 86.4281 170.37H86.4581C86.4781 170.56 86.5381 170.86 86.6081 171.05L88.0981 176H89.5181L90.9481 171.05C91.0081 170.86 91.0781 170.56 91.0981 170.36H91.1281C91.0981 170.63 91.0881 170.89 91.0881 171.16V176H92.6281V168.9H90.2781L89.0281 173.23C88.9281 173.58 88.8781 173.86 88.8481 174.11H88.8281C88.7981 173.86 88.7581 173.59 88.6581 173.25L87.3481 168.9H85.0281V176ZM96.2501 176.12C97.7301 176.12 98.8501 175.21 98.8501 173.49C98.8501 171.77 97.7301 170.88 96.2501 170.88C94.7801 170.88 93.6601 171.77 93.6601 173.49C93.6601 175.21 94.7801 176.12 96.2501 176.12ZM96.2501 175.01C95.6301 175.01 95.2601 174.51 95.2601 173.49C95.2601 172.46 95.6301 171.99 96.2501 171.99C96.8801 171.99 97.2501 172.46 97.2501 173.49C97.2501 174.51 96.8801 175.01 96.2501 175.01ZM99.8116 176H101.422V173.3C101.422 172.53 101.732 172.1 102.292 172.1C102.802 172.1 103.042 172.43 103.042 173.12V176H104.642V172.9C104.642 171.56 104.092 170.87 103.012 170.87C102.252 170.87 101.702 171.23 101.352 171.96V171H99.8116V176ZM108.115 176.12C109.595 176.12 110.715 175.21 110.715 173.49C110.715 171.77 109.595 170.88 108.115 170.88C106.645 170.88 105.525 171.77 105.525 173.49C105.525 175.21 106.645 176.12 108.115 176.12ZM108.115 175.01C107.495 175.01 107.125 174.51 107.125 173.49C107.125 172.46 107.495 171.99 108.115 171.99C108.745 171.99 109.115 172.46 109.115 173.49C109.115 174.51 108.745 175.01 108.115 175.01ZM118.658 172.19H116.858V170.4H115.708V172.19H113.918V173.23H115.708V175.13H116.858V173.23H118.658V172.19ZM123.993 174.75V172.99H126.993V171.75H123.993V170.15H127.163V168.9H122.303V176H127.233V174.75H123.993ZM127.816 176H129.466L130.206 174.86C130.336 174.65 130.436 174.46 130.476 174.34H130.496C130.526 174.47 130.626 174.66 130.756 174.86L131.486 176H133.276L131.436 173.38L133.106 171H131.416L130.826 172C130.716 172.17 130.626 172.35 130.576 172.51H130.556C130.516 172.35 130.426 172.18 130.316 172L129.706 171H127.926L129.626 173.4L127.816 176ZM134.04 177.95H135.65V175.37C135.98 175.84 136.45 176.12 137.08 176.12C138.32 176.12 139.14 175.09 139.14 173.49C139.14 171.9 138.35 170.88 137.14 170.88C136.46 170.88 135.89 171.2 135.58 171.8V171H134.04V177.95ZM136.55 175.01C135.97 175.01 135.61 174.48 135.61 173.66V173.38C135.61 172.47 135.96 171.99 136.54 171.99C137.15 171.99 137.49 172.53 137.49 173.49C137.49 174.43 137.13 175.01 136.55 175.01ZM141.463 176.12C142.243 176.12 142.883 175.77 143.133 175.21C143.143 175.49 143.163 175.76 143.213 176H144.773C144.683 175.69 144.633 175.2 144.633 174.61V172.95C144.633 171.51 143.913 170.88 142.303 170.88C140.883 170.88 139.983 171.54 139.903 172.65H141.493C141.523 172.17 141.803 171.91 142.293 171.91C142.793 171.91 143.033 172.16 143.033 172.73V172.9L141.823 173.07C141.063 173.17 140.583 173.33 140.253 173.56C139.913 173.8 139.743 174.17 139.743 174.64C139.743 175.53 140.433 176.12 141.463 176.12ZM142.063 175.1C141.643 175.1 141.363 174.87 141.363 174.52C141.363 174.15 141.633 173.94 142.223 173.83L143.083 173.69V174.09C143.083 174.69 142.673 175.1 142.063 175.1ZM145.886 176H147.496V173.3C147.496 172.53 147.806 172.1 148.366 172.1C148.876 172.1 149.116 172.43 149.116 173.12V176H150.716V172.9C150.716 171.56 150.166 170.87 149.086 170.87C148.326 170.87 147.776 171.23 147.426 171.96V171H145.886V176ZM153.63 176.12C154.36 176.12 154.96 175.74 155.21 175.14V176H156.73V168.75H155.13V171.67C154.88 171.15 154.38 170.88 153.72 170.88C152.47 170.88 151.63 171.93 151.63 173.52C151.63 175.08 152.43 176.12 153.63 176.12ZM154.26 175.01C153.65 175.01 153.28 174.43 153.28 173.49C153.28 172.53 153.63 171.99 154.24 171.99C154.81 171.99 155.15 172.46 155.15 173.31V173.74C155.15 174.52 154.81 175.01 154.26 175.01ZM162.742 173.38C162.742 171.79 161.862 170.88 160.292 170.88C158.732 170.88 157.752 171.91 157.752 173.55C157.752 175.17 158.752 176.12 160.402 176.12C161.442 176.12 162.292 175.63 162.692 174.81L161.512 174.27C161.282 174.73 160.912 174.97 160.422 174.97C159.752 174.97 159.282 174.54 159.272 173.86H162.742V173.38ZM161.192 172.96H159.272C159.292 172.25 159.642 171.83 160.262 171.83C160.862 171.83 161.192 172.21 161.192 172.92V172.96ZM165.456 176.12C166.186 176.12 166.786 175.74 167.036 175.14V176H168.556V168.75H166.956V171.67C166.706 171.15 166.206 170.88 165.546 170.88C164.296 170.88 163.456 171.93 163.456 173.52C163.456 175.08 164.256 176.12 165.456 176.12ZM166.086 175.01C165.476 175.01 165.106 174.43 165.106 173.49C165.106 172.53 165.456 171.99 166.066 171.99C166.636 171.99 166.976 172.46 166.976 173.31V173.74C166.976 174.52 166.636 175.01 166.086 175.01Z" fill="white"/>
<path d="M65.226 188.17C66.286 188.17 67.096 187.63 67.406 186.86L67.536 188H68.226V184.29H65.296V185.09H67.376V185.21C67.376 185.89 67.116 187.36 65.366 187.36C63.826 187.36 63.086 186.08 63.086 184.46C63.086 182.73 63.906 181.53 65.356 181.53C66.626 181.53 67.056 182.41 67.156 183.01L68.096 182.88C67.976 182.09 67.346 180.73 65.386 180.73C63.286 180.73 62.116 182.28 62.116 184.45C62.116 186.59 63.286 188.17 65.226 188.17ZM70.563 184.14V183H69.773V188H70.623V185.86C70.623 185.26 70.643 184.59 71.123 184.11C71.363 183.87 71.703 183.72 72.223 183.72H72.263V182.89C72.203 182.88 72.143 182.88 72.083 182.88C71.323 182.88 70.803 183.44 70.563 184.14ZM73.3068 182.07H74.2768V181H73.3068V182.07ZM73.3668 188H74.2168V183H73.3668V188ZM76.9133 180.75H76.0633V188H76.9133V180.75ZM79.6672 180.75H78.8172V188H79.6672V180.75ZM81.4611 182.07H82.4311V181H81.4611V182.07ZM81.5211 188H82.3711V183H81.5211V188ZM90.7795 180.9H85.3695V181.7H87.5995V188H88.5495V181.7H90.7795V180.9ZM91.297 190.01C92.137 190.01 92.737 189.59 93.197 188.32L95.147 183H94.227L93.067 186.48C92.987 186.73 92.927 186.93 92.897 187.07H92.877C92.847 186.93 92.797 186.73 92.707 186.48L91.427 183H90.477L92.467 187.94L92.337 188.31C92.107 188.97 91.797 189.24 91.197 189.24C91.087 189.24 90.967 189.23 90.837 189.22V189.97C90.997 190 91.147 190.01 91.297 190.01ZM96.15 189.95H97V187.21C97.22 187.7 97.76 188.12 98.53 188.12C99.74 188.12 100.6 187.1 100.6 185.5C100.6 183.92 99.79 182.88 98.58 182.88C97.85 182.88 97.27 183.24 96.95 183.93V183H96.15V189.95ZM98.33 187.37C97.5 187.37 96.98 186.69 96.98 185.61V185.37C96.98 184.29 97.52 183.63 98.36 183.63C99.2 183.63 99.7 184.32 99.7 185.5C99.7 186.67 99.18 187.37 98.33 187.37ZM105.901 185.15C105.901 183.65 105.121 182.88 103.771 182.88C102.341 182.88 101.501 183.89 101.501 185.56C101.501 187.21 102.351 188.12 103.781 188.12C104.791 188.12 105.521 187.64 105.871 186.73L105.171 186.42C104.951 187.03 104.481 187.37 103.841 187.37C102.951 187.37 102.361 186.73 102.351 185.75H105.901V185.15ZM105.041 185.06H102.351C102.371 184.12 102.871 183.55 103.751 183.55C104.571 183.55 105.041 184.03 105.041 184.95V185.06ZM114.4 181.7V180.9H110V188H110.95V184.76H114.23V183.96H110.95V181.7H114.4ZM117.434 188.12C118.844 188.12 119.764 187.13 119.764 185.5C119.764 183.87 118.844 182.88 117.434 182.88C116.024 182.88 115.104 183.87 115.104 185.5C115.104 187.13 116.024 188.12 117.434 188.12ZM117.434 187.38C116.534 187.38 116.004 186.74 116.004 185.5C116.004 184.26 116.534 183.62 117.434 183.62C118.334 183.62 118.864 184.26 118.864 185.5C118.864 186.74 118.334 187.38 117.434 187.38ZM122.671 188.12C123.371 188.12 123.991 187.67 124.221 187.06V188H125.021V183H124.171V185.69C124.171 186.71 123.631 187.39 122.831 187.39C122.171 187.39 121.811 186.93 121.811 186.09V183H120.961V186.19C120.961 187.36 121.411 188.12 122.671 188.12ZM126.824 188H127.674V185.39C127.674 184.28 128.184 183.61 129.014 183.61C129.744 183.61 130.114 184.06 130.114 184.94V188H130.964V184.89C130.964 183.55 130.394 182.86 129.294 182.86C128.504 182.86 127.954 183.23 127.624 183.99V183H126.824V188ZM134.195 188.12C134.975 188.12 135.515 187.74 135.815 187.07V188H136.615V180.75H135.765V183.74C135.445 183.15 134.955 182.88 134.295 182.88C133.045 182.88 132.165 183.96 132.165 185.5C132.165 187.07 132.985 188.12 134.195 188.12ZM134.425 187.37C133.575 187.37 133.065 186.67 133.065 185.5C133.065 184.32 133.575 183.63 134.425 183.63C135.265 183.63 135.785 184.3 135.785 185.39V185.62C135.785 186.69 135.255 187.37 134.425 187.37ZM139.254 184.14V183H138.464V188H139.314V185.86C139.314 185.26 139.334 184.59 139.814 184.11C140.054 183.87 140.394 183.72 140.914 183.72H140.954V182.89C140.894 182.88 140.834 182.88 140.774 182.88C140.014 182.88 139.494 183.44 139.254 184.14ZM142.381 190.01C143.221 190.01 143.821 189.59 144.281 188.32L146.231 183H145.311L144.151 186.48C144.071 186.73 144.011 186.93 143.981 187.07H143.961C143.931 186.93 143.881 186.73 143.791 186.48L142.511 183H141.561L143.551 187.94L143.421 188.31C143.191 188.97 142.881 189.24 142.281 189.24C142.171 189.24 142.051 189.23 141.921 189.22V189.97C142.081 190 142.231 190.01 142.381 190.01Z" fill="#CCE7FF"/>
</svg>
