<svg width="1240" height="388" viewBox="0 0 1240 388" fill="none" xmlns="http://www.w3.org/2000/svg">
<path d="M939 252H971" stroke="#374151" stroke-width="4" stroke-linecap="square"/>
<path d="M971 252H1003" stroke="#374151" stroke-width="4" stroke-linecap="square"/>
<path d="M1003 252H1035" stroke="#374151" stroke-width="4" stroke-linecap="square"/>
<path d="M1035 252H1067" stroke="#374151" stroke-width="4" stroke-linecap="square"/>
<path d="M1067 252H1099" stroke="#374151" stroke-width="4" stroke-linecap="square"/>
<path d="M1099 252H1131" stroke="#374151" stroke-width="4" stroke-linecap="square"/>
<path d="M1099 108L1099 76" stroke="#374151" stroke-width="4" stroke-linecap="square"/>
<path d="M1099 76L1099 44" stroke="#374151" stroke-width="4" stroke-linecap="square"/>
<path d="M1099 140L1099 108" stroke="#374151" stroke-width="4" stroke-linecap="square"/>
<path d="M1131 252L1131 172" stroke="#374151" stroke-width="4" stroke-linecap="square"/>
<path d="M1163 44L1163 12" stroke="#374151" stroke-width="4" stroke-linecap="square"/>
<path d="M1195 172L1195 140" stroke="#374151" stroke-width="4" stroke-linecap="square"/>
<path d="M1163 172H1195" stroke="#374151" stroke-width="4" stroke-linecap="square"/>
<path d="M1131 172H1163" stroke="#374151" stroke-width="4" stroke-linecap="square"/>
<path d="M1131 44L1163 44" stroke="#374151" stroke-width="4" stroke-linecap="square"/>
<path d="M1099 44L1131 44" stroke="#374151" stroke-width="4" stroke-linecap="square"/>
<path d="M1163 12L1259 12" stroke="#374151" stroke-width="4" stroke-linecap="square"/>
<path d="M811 362H809V366H811V362ZM811 366H831V362H811V366Z" fill="#00030A"/>
<path d="M875 366L877 366L877 362L875 362L875 366ZM855 366L875 366L875 362L855 362L855 366Z" fill="#00030A"/>
<path fill-rule="evenodd" clip-rule="evenodd" d="M843 352C849.627 352 855 357.373 855 364C855 370.627 849.627 376 843 376C836.373 376 831 370.627 831 364C831 357.373 836.373 352 843 352Z" stroke="#FFB41F" stroke-width="4" stroke-linecap="square"/>
<path d="M835 356L851 372" stroke="#FFB41F" stroke-width="4"/>
<path d="M835 372L851 356" stroke="#FFB41F" stroke-width="4"/>
<path d="M747 364L747 300" stroke="#00030A" stroke-width="4" stroke-linecap="square"/>
<path d="M875 364L875 300" stroke="#00030A" stroke-width="4" stroke-linecap="square"/>
<path d="M427 362H425V366H427V362ZM427 366H447V362H427V366Z" fill="#00030A"/>
<path fill-rule="evenodd" clip-rule="evenodd" d="M459 352C465.627 352 471 357.373 471 364C471 370.627 465.627 376 459 376C452.373 376 447 370.627 447 364C447 357.373 452.373 352 459 352Z" stroke="#FFB41F" stroke-width="4" stroke-linecap="square"/>
<path d="M451 356L467 372" stroke="#FFB41F" stroke-width="4"/>
<path d="M451 372L467 356" stroke="#FFB41F" stroke-width="4"/>
<path d="M427 364L427 300" stroke="#00030A" stroke-width="4" stroke-linecap="square"/>
<path d="M1067 298H1065V302H1067V298ZM1067 302H1079V298H1067V302Z" fill="#00030A"/>
<path d="M1079 300H1119" stroke="#D62B36" stroke-width="4" stroke-linecap="square"/>
<path d="M1131 302L1133 302L1133 298L1131 298L1131 302ZM1119 302L1131 302L1131 298L1119 298L1119 302Z" fill="#00030A"/>
<rect x="1079" y="290" width="38" height="20" stroke="#D62B36" stroke-width="4"/>
<path d="M939 300H1003" stroke="#00030A" stroke-width="4" stroke-linecap="square"/>
<path d="M1195 300L1195 236" stroke="#00030A" stroke-width="4" stroke-linecap="square"/>
<path d="M1131 140L1131 76" stroke="#00030A" stroke-width="4" stroke-linecap="square"/>
<path d="M1003 204L1003 140" stroke="#00030A" stroke-width="4" stroke-linecap="square"/>
<path d="M1067 204L1067 140" stroke="#00030A" stroke-width="4" stroke-linecap="square"/>
<path d="M1003 140L1003 76" stroke="#00030A" stroke-width="4" stroke-linecap="square"/>
<path d="M1067 140L1067 76" stroke="#00030A" stroke-width="4" stroke-linecap="square"/>
<path d="M1195 364L1195 300" stroke="#00030A" stroke-width="4" stroke-linecap="square"/>
<path d="M1131 298H1129V302H1131V298ZM1131 302H1155V298H1131V302Z" fill="#00030A"/>
<path d="M1195 302L1197 302L1197 298L1195 298L1195 302ZM1171 302L1195 302L1195 298L1171 298L1171 302Z" fill="#00030A"/>
<path d="M1151 288L1173 300L1151 312V288Z" fill="#FFB41F"/>
<path d="M1173 288L1173 312" stroke="#FFB41F" stroke-width="4"/>
<path d="M1195 364H1259" stroke="#00030A" stroke-width="4" stroke-linecap="square"/>
<path d="M1195 236H1259" stroke="#00030A" stroke-width="4" stroke-linecap="square"/>
<path d="M1195 300H1259" stroke="#00030A" stroke-width="4" stroke-linecap="square"/>
<path d="M1003 298H1001V302H1003V298ZM1003 302H1019V298H1003V302Z" fill="#00030A"/>
<path d="M1067 302L1069 302L1069 298L1067 298L1067 302ZM1051 302L1067 302L1067 298L1051 298L1051 302Z" fill="#00030A"/>
<circle cx="1023" cy="300" r="4" stroke="#00030A" stroke-width="4" stroke-linecap="square"/>
<circle cx="1047" cy="300" r="4" stroke="#00030A" stroke-width="4" stroke-linecap="square"/>
<path d="M1035 312L1035 288" stroke="#00030A" stroke-width="4" stroke-linecap="square"/>
<path d="M939 300L939 204" stroke="#00030A" stroke-width="4" stroke-linecap="square"/>
<path d="M875 300H939" stroke="#00030A" stroke-width="4" stroke-linecap="square"/>
<path d="M811 300H875" stroke="#00030A" stroke-width="4" stroke-linecap="square"/>
<path d="M811 204H875" stroke="#00030A" stroke-width="4" stroke-linecap="square"/>
<path d="M747 364H811" stroke="#00030A" stroke-width="4" stroke-linecap="square"/>
<path d="M747 298H745V302H747V298ZM747 302H767V298H747V302Z" fill="#00030A"/>
<path d="M811 302L813 302L813 298L811 298L811 302ZM791 302L811 302L811 298L791 298L791 302Z" fill="#00030A"/>
<path d="M777.279 305H780.723L784.013 295.06H780.863L779.309 300.968C779.155 301.57 779.071 301.948 779.029 302.354H778.973C778.931 301.948 778.847 301.57 778.693 300.968L777.139 295.06H773.989L777.279 305Z" fill="#0049B8"/>
<path fill-rule="evenodd" clip-rule="evenodd" d="M779 288C785.627 288 791 293.373 791 300C791 306.627 785.627 312 779 312C772.373 312 767 306.627 767 300C767 293.373 772.373 288 779 288Z" stroke="#0049B8" stroke-width="4" stroke-linecap="square"/>
<path d="M747 236L747 172" stroke="#00030A" stroke-width="4" stroke-linecap="square"/>
<path d="M747 300L747 236" stroke="#00030A" stroke-width="4" stroke-linecap="square"/>
<path d="M683 300H747" stroke="#00030A" stroke-width="4" stroke-linecap="square"/>
<path d="M619 298H617V302H619V298ZM619 302H631V298H619V302Z" fill="#00030A"/>
<path d="M631 300H671" stroke="#D62B36" stroke-width="4" stroke-linecap="square"/>
<path d="M683 302L685 302L685 298L683 298L683 302ZM671 302L683 302L683 298L671 298L671 302Z" fill="#00030A"/>
<rect x="631" y="290" width="38" height="20" stroke="#D62B36" stroke-width="4"/>
<path d="M555 298H553V302H555V298ZM555 302H571V298H555V302Z" fill="#00030A"/>
<path d="M619 302L621 302L621 298L619 298L619 302ZM603 302L619 302L619 298L603 298L603 302Z" fill="#00030A"/>
<circle cx="575" cy="300" r="4" stroke="#00030A" stroke-width="4" stroke-linecap="square"/>
<circle cx="599" cy="300" r="4" stroke="#00030A" stroke-width="4" stroke-linecap="square"/>
<path d="M587 312L587 288" stroke="#00030A" stroke-width="4" stroke-linecap="square"/>
<path d="M555 300L555 236" stroke="#00030A" stroke-width="4" stroke-linecap="square"/>
<path d="M491 300H555" stroke="#00030A" stroke-width="4" stroke-linecap="square"/>
<path d="M427 298H425V302H427V298ZM427 302H447V298H427V302Z" fill="#00030A"/>
<path d="M491 302L493 302L493 298L491 298L491 302ZM471 302L491 302L491 298L471 298L471 302Z" fill="#00030A"/>
<path d="M453.387 305H455.837V298.728C455.837 298.336 455.809 297.944 455.781 297.594H455.809C455.837 297.888 455.907 298.21 455.977 298.448L457.755 305H460.135L461.801 298.448C461.857 298.224 461.927 297.888 461.955 297.566H461.983C461.955 297.972 461.941 298.364 461.941 298.728V305H464.615V295.06H460.555L459.281 300.254C459.155 300.744 459.057 301.29 459.029 301.64H459.001C458.973 301.29 458.889 300.758 458.763 300.282L457.391 295.06H453.387V305Z" fill="#0049B8"/>
<path fill-rule="evenodd" clip-rule="evenodd" d="M459 288C465.627 288 471 293.373 471 300C471 306.627 465.627 312 459 312C452.373 312 447 306.627 447 300C447 293.373 452.373 288 459 288Z" stroke="#0049B8" stroke-width="4" stroke-linecap="square"/>
<path d="M427 300L427 236" stroke="#00030A" stroke-width="4" stroke-linecap="square"/>
<path d="M363 300H427" stroke="#00030A" stroke-width="4" stroke-linecap="square"/>
<path d="M299 300H363" stroke="#00030A" stroke-width="4" stroke-linecap="square"/>
<path d="M235 298H233V302H235V298ZM235 302H247V298H235V302Z" fill="#00030A"/>
<path d="M247 300H287" stroke="#D62B36" stroke-width="4" stroke-linecap="square"/>
<path d="M299 302L301 302L301 298L299 298L299 302ZM287 302L299 302L299 298L287 298L287 302Z" fill="#00030A"/>
<rect x="247" y="290" width="38" height="20" stroke="#D62B36" stroke-width="4"/>
<path d="M171 298H169V302H171V298ZM171 302H187V298H171V302Z" fill="#00030A"/>
<path d="M235 302L237 302L237 298L235 298L235 302ZM219 302L235 302L235 298L219 298L219 302Z" fill="#00030A"/>
<circle cx="191" cy="300" r="4" stroke="#00030A" stroke-width="4" stroke-linecap="square"/>
<circle cx="215" cy="300" r="4" stroke="#00030A" stroke-width="4" stroke-linecap="square"/>
<path d="M203 312L203 288" stroke="#00030A" stroke-width="4" stroke-linecap="square"/>
<path opacity="0.12" d="M170.5 300C170.5 317.397 156.397 331.5 139 331.5C121.603 331.5 107.5 317.397 107.5 300C107.5 282.603 121.603 268.5 139 268.5C156.397 268.5 170.5 282.603 170.5 300Z" stroke="#00030A"/>
<path opacity="0.12" d="M164 300C164 313.807 152.807 325 139 325C125.193 325 114 313.807 114 300C114 286.193 125.193 275 139 275C152.807 275 164 286.193 164 300Z" stroke="#00030A" stroke-width="2"/>
<path d="M107 298H105V302H107V298ZM107 302H123V298H107V302Z" fill="#00030A"/>
<path d="M171 302L173 302L173 298L171 298L171 302ZM155 302L171 302L171 298L155 298L155 302Z" fill="#00030A"/>
<path fill-rule="evenodd" clip-rule="evenodd" d="M139 284C147.837 284 155 291.163 155 300C155 308.837 147.837 316 139 316C130.163 316 123 308.837 123 300C123 291.163 130.163 284 139 284Z" stroke="#00030A" stroke-width="4" stroke-linecap="square"/>
<path fill-rule="evenodd" clip-rule="evenodd" d="M140 293H146L142 299H146L138 309V305H132L140 293Z" fill="black"/>
<path fill-rule="evenodd" clip-rule="evenodd" d="M132 293H138L139 294.5L136 299L132 293Z" fill="black"/>
<path d="M0 300H107" stroke="#00030A" stroke-width="4" stroke-linecap="square"/>
<path d="M875 202H873V206H875V202ZM875 206H895V202H875V206Z" fill="#00030A"/>
<path d="M939 206L941 206L941 202L939 202L939 206ZM919 206L939 206L939 202L919 202L919 206Z" fill="#00030A"/>
<path d="M901.387 209H903.837V202.728C903.837 202.336 903.809 201.944 903.781 201.594H903.809C903.837 201.888 903.907 202.21 903.977 202.448L905.755 209H908.135L909.801 202.448C909.857 202.224 909.927 201.888 909.955 201.566H909.983C909.955 201.972 909.941 202.364 909.941 202.728V209H912.615V199.06H908.555L907.281 204.254C907.155 204.744 907.057 205.29 907.029 205.64H907.001C906.973 205.29 906.889 204.758 906.763 204.282L905.391 199.06H901.387V209Z" fill="#0049B8"/>
<path fill-rule="evenodd" clip-rule="evenodd" d="M907 192C913.627 192 919 197.373 919 204C919 210.627 913.627 216 907 216C900.373 216 895 210.627 895 204C895 197.373 900.373 192 907 192Z" stroke="#0049B8" stroke-width="4" stroke-linecap="square"/>
<path d="M811 204L811 140" stroke="#00030A" stroke-width="4" stroke-linecap="square"/>
<path d="M747 234H745V238H747V234ZM747 238H767V234H747V238Z" fill="#00030A"/>
<path fill-rule="evenodd" clip-rule="evenodd" d="M779 224C785.627 224 791 229.373 791 236C791 242.627 785.627 248 779 248C772.373 248 767 242.627 767 236C767 229.373 772.373 224 779 224Z" stroke="#FFB41F" stroke-width="4" stroke-linecap="square"/>
<path d="M771 228L787 244" stroke="#FFB41F" stroke-width="4"/>
<path d="M771 244L787 228" stroke="#FFB41F" stroke-width="4"/>
<path d="M747 170H745V174H747V170ZM747 174H771V170H747V174Z" fill="#00030A"/>
<path d="M811 174L813 174L813 170L811 170L811 174ZM787 174L811 174L811 170L787 170L787 174Z" fill="#00030A"/>
<path d="M767 160L789 172L767 184V160Z" fill="#FFB41F"/>
<path d="M789 160L789 184" stroke="#FFB41F" stroke-width="4"/>
<path d="M1131 74H1129V78H1131V74ZM1131 78H1155V74H1131V78Z" fill="#00030A"/>
<path d="M1195 78L1197 78L1197 74L1195 74L1195 78ZM1171 78L1195 78L1195 74L1171 74L1171 78Z" fill="#00030A"/>
<path d="M1151 64L1173 76L1151 88V64Z" fill="#FFB41F"/>
<path d="M1173 64L1173 88" stroke="#FFB41F" stroke-width="4"/>
<path d="M491 234H489V238H491V234ZM491 238H515V234H491V238Z" fill="#00030A"/>
<path d="M555 238L557 238L557 234L555 234L555 238ZM531 238L555 238L555 234L531 234L531 238Z" fill="#00030A"/>
<path d="M511 224L533 236L511 248V224Z" fill="#FFB41F"/>
<path d="M533 224L533 248" stroke="#FFB41F" stroke-width="4"/>
<path d="M427 234H425V238H427V234ZM427 238H439V234H427V238Z" fill="#00030A"/>
<path d="M439 236H479" stroke="#D62B36" stroke-width="4" stroke-linecap="square"/>
<path d="M491 238L493 238L493 234L491 234L491 238ZM479 238L491 238L491 234L479 234L479 238Z" fill="#00030A"/>
<rect x="439" y="226" width="38" height="20" stroke="#D62B36" stroke-width="4"/>
<path d="M875 138H873V142H875V138ZM875 142H895V138H875V142Z" fill="#00030A"/>
<path d="M939 142L941 142L941 138L939 138L939 142ZM919 142L939 142L939 138L919 138L919 142Z" fill="#00030A"/>
<path fill-rule="evenodd" clip-rule="evenodd" d="M907 128C913.627 128 919 133.373 919 140C919 146.627 913.627 152 907 152C900.373 152 895 146.627 895 140C895 133.373 900.373 128 907 128Z" stroke="#FFB41F" stroke-width="4" stroke-linecap="square"/>
<path d="M899 132L915 148" stroke="#FFB41F" stroke-width="4"/>
<path d="M899 148L915 132" stroke="#FFB41F" stroke-width="4"/>
<path d="M811 138H809V142H811V138ZM811 142H823V138H811V142Z" fill="#00030A"/>
<path d="M823 140H863" stroke="#D62B36" stroke-width="4" stroke-linecap="square"/>
<path d="M875 142L877 142L877 138L875 138L875 142ZM863 142L875 142L875 138L863 138L863 142Z" fill="#00030A"/>
<rect x="823" y="130" width="38" height="20" stroke="#D62B36" stroke-width="4"/>
<path d="M939 140H1003" stroke="#00030A" stroke-width="4" stroke-linecap="square"/>
<path d="M1195 76H1259" stroke="#00030A" stroke-width="4" stroke-linecap="square"/>
<path d="M1067 140H1259" stroke="#00030A" stroke-width="4" stroke-linecap="square"/>
<path d="M1003 202H1001V206H1003V202ZM1003 206H1023V202H1003V206Z" fill="#00030A"/>
<path d="M1067 206L1069 206L1069 202L1067 202L1067 206ZM1047 206L1067 206L1067 202L1047 202L1047 206Z" fill="#00030A"/>
<path d="M1037.33 209H1040.26L1036.73 199.06H1033.26L1029.73 209H1032.66L1033.29 206.97H1036.7L1037.33 209ZM1033.89 205.01L1034.55 202.854C1034.72 202.308 1034.87 201.846 1034.98 201.09H1035.01C1035.12 201.846 1035.28 202.308 1035.44 202.854L1036.1 205.01H1033.89Z" fill="#0049B8"/>
<path fill-rule="evenodd" clip-rule="evenodd" d="M1035 192C1041.63 192 1047 197.373 1047 204C1047 210.627 1041.63 216 1035 216C1028.37 216 1023 210.627 1023 204C1023 197.373 1028.37 192 1035 192Z" stroke="#0049B8" stroke-width="4" stroke-linecap="square"/>
<path d="M1003 74H1001V78H1003V74ZM1003 78H1023V74H1003V78Z" fill="#00030A"/>
<path d="M1067 78L1069 78L1069 74L1067 74L1067 78ZM1047 78L1067 78L1067 74L1047 74L1047 78Z" fill="#00030A"/>
<path d="M1029.39 81H1031.84V74.728C1031.84 74.336 1031.81 73.944 1031.78 73.594H1031.81C1031.84 73.888 1031.91 74.21 1031.98 74.448L1033.75 81H1036.13L1037.8 74.448C1037.86 74.224 1037.93 73.888 1037.95 73.566H1037.98C1037.95 73.972 1037.94 74.364 1037.94 74.728V81H1040.61V71.06H1036.55L1035.28 76.254C1035.15 76.744 1035.06 77.29 1035.03 77.64H1035C1034.97 77.29 1034.89 76.758 1034.76 76.282L1033.39 71.06H1029.39V81Z" fill="#0049B8"/>
<path fill-rule="evenodd" clip-rule="evenodd" d="M1035 64C1041.63 64 1047 69.3726 1047 76C1047 82.6274 1041.63 88 1035 88C1028.37 88 1023 82.6274 1023 76C1023 69.3726 1028.37 64 1035 64Z" stroke="#0049B8" stroke-width="4" stroke-linecap="square"/>
</svg>
