<svg width="2146" height="388" viewBox="0 0 2146 388" fill="none" xmlns="http://www.w3.org/2000/svg">
<path d="M1808 252H1840" stroke="#3E4D5F" stroke-width="4" stroke-linecap="square"/>
<path d="M1840 252H1872" stroke="#3E4D5F" stroke-width="4" stroke-linecap="square"/>
<path d="M1872 252H1904" stroke="#3E4D5F" stroke-width="4" stroke-linecap="square"/>
<path d="M1904 252H1936" stroke="#3E4D5F" stroke-width="4" stroke-linecap="square"/>
<path d="M1936 252H1968" stroke="#3E4D5F" stroke-width="4" stroke-linecap="square"/>
<path d="M1968 252H2000" stroke="#3E4D5F" stroke-width="4" stroke-linecap="square"/>
<path d="M1968 108L1968 76" stroke="#3E4D5F" stroke-width="4" stroke-linecap="square"/>
<path d="M1968 76L1968 44" stroke="#3E4D5F" stroke-width="4" stroke-linecap="square"/>
<path d="M1968 140L1968 108" stroke="#3E4D5F" stroke-width="4" stroke-linecap="square"/>
<path d="M2000 252L2000 172" stroke="#3E4D5F" stroke-width="4" stroke-linecap="square"/>
<path d="M2032 44L2032 12" stroke="#3E4D5F" stroke-width="4" stroke-linecap="square"/>
<path d="M2064 172L2064 140" stroke="#3E4D5F" stroke-width="4" stroke-linecap="square"/>
<path d="M2032 172H2064" stroke="#3E4D5F" stroke-width="4" stroke-linecap="square"/>
<path d="M2000 172H2032" stroke="#3E4D5F" stroke-width="4" stroke-linecap="square"/>
<path d="M2000 44L2032 44" stroke="#3E4D5F" stroke-width="4" stroke-linecap="square"/>
<path d="M1968 44L2000 44" stroke="#3E4D5F" stroke-width="4" stroke-linecap="square"/>
<path d="M2032 12L2144 12" stroke="#3E4D5F" stroke-width="4" stroke-linecap="square"/>
<path d="M1680 362H1678V366H1680V362ZM1680 366H1700V362H1680V366Z" fill="#00030A"/>
<path d="M1744 366L1746 366L1746 362L1744 362L1744 366ZM1724 366L1744 366L1744 362L1724 362L1724 366Z" fill="#00030A"/>
<path fill-rule="evenodd" clip-rule="evenodd" d="M1712 352C1718.63 352 1724 357.373 1724 364C1724 370.627 1718.63 376 1712 376C1705.37 376 1700 370.627 1700 364C1700 357.373 1705.37 352 1712 352Z" stroke="#FFB41F" stroke-width="4" stroke-linecap="square"/>
<path d="M1704 356L1720 372" stroke="#FFB41F" stroke-width="4"/>
<path d="M1704 372L1720 356" stroke="#FFB41F" stroke-width="4"/>
<path d="M1616 364L1616 300" stroke="#00030A" stroke-width="4" stroke-linecap="square"/>
<path d="M1744 364L1744 300" stroke="#00030A" stroke-width="4" stroke-linecap="square"/>
<path d="M1296 362H1294V366H1296V362ZM1296 366H1316V362H1296V366Z" fill="#00030A"/>
<path fill-rule="evenodd" clip-rule="evenodd" d="M1328 352C1334.63 352 1340 357.373 1340 364C1340 370.627 1334.63 376 1328 376C1321.37 376 1316 370.627 1316 364C1316 357.373 1321.37 352 1328 352Z" stroke="#FFB41F" stroke-width="4" stroke-linecap="square"/>
<path d="M1320 356L1336 372" stroke="#FFB41F" stroke-width="4"/>
<path d="M1320 372L1336 356" stroke="#FFB41F" stroke-width="4"/>
<path d="M1296 364L1296 300" stroke="#00030A" stroke-width="4" stroke-linecap="square"/>
<path d="M1936 298H1934V302H1936V298ZM1936 302H1948V298H1936V302Z" fill="#00030A"/>
<path d="M1948 300H1988" stroke="#D62B36" stroke-width="4" stroke-linecap="square"/>
<path d="M2000 302L2002 302L2002 298L2000 298L2000 302ZM1988 302L2000 302L2000 298L1988 298L1988 302Z" fill="#00030A"/>
<rect x="1948" y="290" width="38" height="20" stroke="#D62B36" stroke-width="4"/>
<path d="M1808 300H1872" stroke="#00030A" stroke-width="4" stroke-linecap="square"/>
<path d="M2064 300L2064 236" stroke="#00030A" stroke-width="4" stroke-linecap="square"/>
<path d="M2000 140L2000 76" stroke="#00030A" stroke-width="4" stroke-linecap="square"/>
<path d="M1872 204L1872 140" stroke="#00030A" stroke-width="4" stroke-linecap="square"/>
<path d="M1936 204L1936 140" stroke="#00030A" stroke-width="4" stroke-linecap="square"/>
<path d="M1872 140L1872 76" stroke="#00030A" stroke-width="4" stroke-linecap="square"/>
<path d="M1936 140L1936 76" stroke="#00030A" stroke-width="4" stroke-linecap="square"/>
<path d="M2064 364L2064 300" stroke="#00030A" stroke-width="4" stroke-linecap="square"/>
<path d="M2000 298H1998V302H2000V298ZM2000 302H2024V298H2000V302Z" fill="#00030A"/>
<path d="M2064 302L2066 302L2066 298L2064 298L2064 302ZM2040 302L2064 302L2064 298L2040 298L2040 302Z" fill="#00030A"/>
<path d="M2020 288L2042 300L2020 312V288Z" fill="#FFB41F"/>
<path d="M2042 288L2042 312" stroke="#FFB41F" stroke-width="4"/>
<path d="M2064 364H2144" stroke="#00030A" stroke-width="4" stroke-linecap="square"/>
<path d="M2064 236H2144" stroke="#00030A" stroke-width="4" stroke-linecap="square"/>
<path d="M2064 300H2144" stroke="#00030A" stroke-width="4" stroke-linecap="square"/>
<path d="M1872 298H1870V302H1872V298ZM1872 302H1888V298H1872V302Z" fill="#00030A"/>
<path d="M1936 302L1938 302L1938 298L1936 298L1936 302ZM1920 302L1936 302L1936 298L1920 298L1920 302Z" fill="#00030A"/>
<circle cx="1892" cy="300" r="4" stroke="#00030A" stroke-width="4" stroke-linecap="square"/>
<circle cx="1916" cy="300" r="4" stroke="#00030A" stroke-width="4" stroke-linecap="square"/>
<path d="M1904 312L1904 288" stroke="#00030A" stroke-width="4" stroke-linecap="square"/>
<path d="M1808 300L1808 204" stroke="#00030A" stroke-width="4" stroke-linecap="square"/>
<path d="M1744 300H1808" stroke="#00030A" stroke-width="4" stroke-linecap="square"/>
<path d="M1680 300H1744" stroke="#00030A" stroke-width="4" stroke-linecap="square"/>
<path d="M1680 204H1744" stroke="#00030A" stroke-width="4" stroke-linecap="square"/>
<path d="M1616 364H1680" stroke="#00030A" stroke-width="4" stroke-linecap="square"/>
<path d="M1616 298H1614V302H1616V298ZM1616 302H1636V298H1616V302Z" fill="#00030A"/>
<path d="M1680 302L1682 302L1682 298L1680 298L1680 302ZM1660 302L1680 302L1680 298L1660 298L1660 302Z" fill="#00030A"/>
<path d="M1646.28 305H1649.72L1653.01 295.06H1649.86L1648.31 300.968C1648.16 301.57 1648.07 301.948 1648.03 302.354H1647.97C1647.93 301.948 1647.85 301.57 1647.69 300.968L1646.14 295.06H1642.99L1646.28 305Z" fill="#0049B8"/>
<path fill-rule="evenodd" clip-rule="evenodd" d="M1648 288C1654.63 288 1660 293.373 1660 300C1660 306.627 1654.63 312 1648 312C1641.37 312 1636 306.627 1636 300C1636 293.373 1641.37 288 1648 288Z" stroke="#0049B8" stroke-width="4" stroke-linecap="square"/>
<path d="M1616 236L1616 172" stroke="#00030A" stroke-width="4" stroke-linecap="square"/>
<path d="M1616 300L1616 236" stroke="#00030A" stroke-width="4" stroke-linecap="square"/>
<path d="M1552 300H1616" stroke="#00030A" stroke-width="4" stroke-linecap="square"/>
<path d="M1488 298H1486V302H1488V298ZM1488 302H1500V298H1488V302Z" fill="#00030A"/>
<path d="M1500 300H1540" stroke="#D62B36" stroke-width="4" stroke-linecap="square"/>
<path d="M1552 302L1554 302L1554 298L1552 298L1552 302ZM1540 302L1552 302L1552 298L1540 298L1540 302Z" fill="#00030A"/>
<rect x="1500" y="290" width="38" height="20" stroke="#D62B36" stroke-width="4"/>
<path d="M1424 298H1422V302H1424V298ZM1424 302H1440V298H1424V302Z" fill="#00030A"/>
<path d="M1488 302L1490 302L1490 298L1488 298L1488 302ZM1472 302L1488 302L1488 298L1472 298L1472 302Z" fill="#00030A"/>
<circle cx="1444" cy="300" r="4" stroke="#00030A" stroke-width="4" stroke-linecap="square"/>
<circle cx="1468" cy="300" r="4" stroke="#00030A" stroke-width="4" stroke-linecap="square"/>
<path d="M1456 312L1456 288" stroke="#00030A" stroke-width="4" stroke-linecap="square"/>
<path d="M1424 300L1424 236" stroke="#00030A" stroke-width="4" stroke-linecap="square"/>
<path d="M1360 300H1424" stroke="#00030A" stroke-width="4" stroke-linecap="square"/>
<path d="M1296 298H1294V302H1296V298ZM1296 302H1316V298H1296V302Z" fill="#00030A"/>
<path d="M1360 302L1362 302L1362 298L1360 298L1360 302ZM1340 302L1360 302L1360 298L1340 298L1340 302Z" fill="#00030A"/>
<path d="M1322.39 305H1324.84V298.728C1324.84 298.336 1324.81 297.944 1324.78 297.594H1324.81C1324.84 297.888 1324.91 298.21 1324.98 298.448L1326.75 305H1329.13L1330.8 298.448C1330.86 298.224 1330.93 297.888 1330.95 297.566H1330.98C1330.95 297.972 1330.94 298.364 1330.94 298.728V305H1333.61V295.06H1329.55L1328.28 300.254C1328.15 300.744 1328.06 301.29 1328.03 301.64H1328C1327.97 301.29 1327.89 300.758 1327.76 300.282L1326.39 295.06H1322.39V305Z" fill="#0049B8"/>
<path fill-rule="evenodd" clip-rule="evenodd" d="M1328 288C1334.63 288 1340 293.373 1340 300C1340 306.627 1334.63 312 1328 312C1321.37 312 1316 306.627 1316 300C1316 293.373 1321.37 288 1328 288Z" stroke="#0049B8" stroke-width="4" stroke-linecap="square"/>
<path d="M1296 300L1296 236" stroke="#00030A" stroke-width="4" stroke-linecap="square"/>
<path d="M1232 300H1296" stroke="#00030A" stroke-width="4" stroke-linecap="square"/>
<path d="M1168 298H1166V302H1168V298ZM1168 302H1180V298H1168V302Z" fill="#00030A"/>
<path d="M1180 300H1220" stroke="#D62B36" stroke-width="4" stroke-linecap="square"/>
<path d="M1232 302L1234 302L1234 298L1232 298L1232 302ZM1220 302L1232 302L1232 298L1220 298L1220 302Z" fill="#00030A"/>
<rect x="1180" y="290" width="38" height="20" stroke="#D62B36" stroke-width="4"/>
<path d="M1104 298H1102V302H1104V298ZM1104 302H1120V298H1104V302Z" fill="#00030A"/>
<path d="M1168 302L1170 302L1170 298L1168 298L1168 302ZM1152 302L1168 302L1168 298L1152 298L1152 302Z" fill="#00030A"/>
<circle cx="1124" cy="300" r="4" stroke="#00030A" stroke-width="4" stroke-linecap="square"/>
<circle cx="1148" cy="300" r="4" stroke="#00030A" stroke-width="4" stroke-linecap="square"/>
<path d="M1136 312L1136 288" stroke="#00030A" stroke-width="4" stroke-linecap="square"/>
<path opacity="0.12" d="M1103.5 300C1103.5 317.397 1089.4 331.5 1072 331.5C1054.6 331.5 1040.5 317.397 1040.5 300C1040.5 282.603 1054.6 268.5 1072 268.5C1089.4 268.5 1103.5 282.603 1103.5 300Z" stroke="#00030A"/>
<path opacity="0.12" d="M1097 300C1097 313.807 1085.81 325 1072 325C1058.19 325 1047 313.807 1047 300C1047 286.193 1058.19 275 1072 275C1085.81 275 1097 286.193 1097 300Z" stroke="#00030A" stroke-width="2"/>
<path d="M1040 298H1038V302H1040V298ZM1040 302H1056V298H1040V302Z" fill="#00030A"/>
<path d="M1104 302L1106 302L1106 298L1104 298L1104 302ZM1088 302L1104 302L1104 298L1088 298L1088 302Z" fill="#00030A"/>
<path fill-rule="evenodd" clip-rule="evenodd" d="M1072 284C1080.84 284 1088 291.163 1088 300C1088 308.837 1080.84 316 1072 316C1063.16 316 1056 308.837 1056 300C1056 291.163 1063.16 284 1072 284Z" stroke="#00030A" stroke-width="4" stroke-linecap="square"/>
<path fill-rule="evenodd" clip-rule="evenodd" d="M1073 293H1079L1075 299H1079L1071 309V305H1065L1073 293Z" fill="#00030A"/>
<path fill-rule="evenodd" clip-rule="evenodd" d="M1065 293H1071L1072 294.5L1069 299L1065 293Z" fill="#00030A"/>
<path d="M1744 202H1742V206H1744V202ZM1744 206H1764V202H1744V206Z" fill="#00030A"/>
<path d="M1808 206L1810 206L1810 202L1808 202L1808 206ZM1788 206L1808 206L1808 202L1788 202L1788 206Z" fill="#00030A"/>
<path d="M1770.39 209H1772.84V202.728C1772.84 202.336 1772.81 201.944 1772.78 201.594H1772.81C1772.84 201.888 1772.91 202.21 1772.98 202.448L1774.75 209H1777.13L1778.8 202.448C1778.86 202.224 1778.93 201.888 1778.95 201.566H1778.98C1778.95 201.972 1778.94 202.364 1778.94 202.728V209H1781.61V199.06H1777.55L1776.28 204.254C1776.15 204.744 1776.06 205.29 1776.03 205.64H1776C1775.97 205.29 1775.89 204.758 1775.76 204.282L1774.39 199.06H1770.39V209Z" fill="#0049B8"/>
<path fill-rule="evenodd" clip-rule="evenodd" d="M1776 192C1782.63 192 1788 197.373 1788 204C1788 210.627 1782.63 216 1776 216C1769.37 216 1764 210.627 1764 204C1764 197.373 1769.37 192 1776 192Z" stroke="#0049B8" stroke-width="4" stroke-linecap="square"/>
<path d="M1680 204L1680 140" stroke="#00030A" stroke-width="4" stroke-linecap="square"/>
<path d="M1616 234H1614V238H1616V234ZM1616 238H1636V234H1616V238Z" fill="#00030A"/>
<path fill-rule="evenodd" clip-rule="evenodd" d="M1648 224C1654.63 224 1660 229.373 1660 236C1660 242.627 1654.63 248 1648 248C1641.37 248 1636 242.627 1636 236C1636 229.373 1641.37 224 1648 224Z" stroke="#FFB41F" stroke-width="4" stroke-linecap="square"/>
<path d="M1640 228L1656 244" stroke="#FFB41F" stroke-width="4"/>
<path d="M1640 244L1656 228" stroke="#FFB41F" stroke-width="4"/>
<path d="M1616 170H1614V174H1616V170ZM1616 174H1640V170H1616V174Z" fill="#00030A"/>
<path d="M1680 174L1682 174L1682 170L1680 170L1680 174ZM1656 174L1680 174L1680 170L1656 170L1656 174Z" fill="#00030A"/>
<path d="M1636 160L1658 172L1636 184V160Z" fill="#FFB41F"/>
<path d="M1658 160L1658 184" stroke="#FFB41F" stroke-width="4"/>
<path d="M2000 74H1998V78H2000V74ZM2000 78H2024V74H2000V78Z" fill="#00030A"/>
<path d="M2064 78L2066 78L2066 74L2064 74L2064 78ZM2040 78L2064 78L2064 74L2040 74L2040 78Z" fill="#00030A"/>
<path d="M2020 64L2042 76L2020 88V64Z" fill="#FFB41F"/>
<path d="M2042 64L2042 88" stroke="#FFB41F" stroke-width="4"/>
<path d="M1360 234H1358V238H1360V234ZM1360 238H1384V234H1360V238Z" fill="#00030A"/>
<path d="M1424 238L1426 238L1426 234L1424 234L1424 238ZM1400 238L1424 238L1424 234L1400 234L1400 238Z" fill="#00030A"/>
<path d="M1380 224L1402 236L1380 248V224Z" fill="#FFB41F"/>
<path d="M1402 224L1402 248" stroke="#FFB41F" stroke-width="4"/>
<path d="M1296 234H1294V238H1296V234ZM1296 238H1308V234H1296V238Z" fill="#00030A"/>
<path d="M1308 236H1348" stroke="#D62B36" stroke-width="4" stroke-linecap="square"/>
<path d="M1360 238L1362 238L1362 234L1360 234L1360 238ZM1348 238L1360 238L1360 234L1348 234L1348 238Z" fill="#00030A"/>
<rect x="1308" y="226" width="38" height="20" stroke="#D62B36" stroke-width="4"/>
<path d="M1744 138H1742V142H1744V138ZM1744 142H1764V138H1744V142Z" fill="#00030A"/>
<path d="M1808 142L1810 142L1810 138L1808 138L1808 142ZM1788 142L1808 142L1808 138L1788 138L1788 142Z" fill="#00030A"/>
<path fill-rule="evenodd" clip-rule="evenodd" d="M1776 128C1782.63 128 1788 133.373 1788 140C1788 146.627 1782.63 152 1776 152C1769.37 152 1764 146.627 1764 140C1764 133.373 1769.37 128 1776 128Z" stroke="#FFB41F" stroke-width="4" stroke-linecap="square"/>
<path d="M1768 132L1784 148" stroke="#FFB41F" stroke-width="4"/>
<path d="M1768 148L1784 132" stroke="#FFB41F" stroke-width="4"/>
<path d="M1680 138H1678V142H1680V138ZM1680 142H1692V138H1680V142Z" fill="#00030A"/>
<path d="M1692 140H1732" stroke="#D62B36" stroke-width="4" stroke-linecap="square"/>
<path d="M1744 142L1746 142L1746 138L1744 138L1744 142ZM1732 142L1744 142L1744 138L1732 138L1732 142Z" fill="#00030A"/>
<rect x="1692" y="130" width="38" height="20" stroke="#D62B36" stroke-width="4"/>
<path d="M1808 140H1872" stroke="#00030A" stroke-width="4" stroke-linecap="square"/>
<path d="M2064 76H2144" stroke="#00030A" stroke-width="4" stroke-linecap="square"/>
<path d="M1936 140H2144" stroke="#00030A" stroke-width="4" stroke-linecap="square"/>
<path d="M1872 202H1870V206H1872V202ZM1872 206H1892V202H1872V206Z" fill="#00030A"/>
<path d="M1936 206L1938 206L1938 202L1936 202L1936 206ZM1916 206L1936 206L1936 202L1916 202L1916 206Z" fill="#00030A"/>
<path d="M1906.33 209H1909.26L1905.73 199.06H1902.26L1898.73 209H1901.66L1902.29 206.97H1905.7L1906.33 209ZM1902.89 205.01L1903.55 202.854C1903.72 202.308 1903.87 201.846 1903.98 201.09H1904.01C1904.12 201.846 1904.28 202.308 1904.44 202.854L1905.1 205.01H1902.89Z" fill="#0049B8"/>
<path fill-rule="evenodd" clip-rule="evenodd" d="M1904 192C1910.63 192 1916 197.373 1916 204C1916 210.627 1910.63 216 1904 216C1897.37 216 1892 210.627 1892 204C1892 197.373 1897.37 192 1904 192Z" stroke="#0049B8" stroke-width="4" stroke-linecap="square"/>
<path d="M1872 74H1870V78H1872V74ZM1872 78H1892V74H1872V78Z" fill="#00030A"/>
<path d="M1936 78L1938 78L1938 74L1936 74L1936 78ZM1916 78L1936 78L1936 74L1916 74L1916 78Z" fill="#00030A"/>
<path d="M1898.39 81H1900.84V74.728C1900.84 74.336 1900.81 73.944 1900.78 73.594H1900.81C1900.84 73.888 1900.91 74.21 1900.98 74.448L1902.75 81H1905.13L1906.8 74.448C1906.86 74.224 1906.93 73.888 1906.95 73.566H1906.98C1906.95 73.972 1906.94 74.364 1906.94 74.728V81H1909.61V71.06H1905.55L1904.28 76.254C1904.15 76.744 1904.06 77.29 1904.03 77.64H1904C1903.97 77.29 1903.89 76.758 1903.76 76.282L1902.39 71.06H1898.39V81Z" fill="#0049B8"/>
<path fill-rule="evenodd" clip-rule="evenodd" d="M1904 64C1910.63 64 1916 69.3726 1916 76C1916 82.6274 1910.63 88 1904 88C1897.37 88 1892 82.6274 1892 76C1892 69.3726 1897.37 64 1904 64Z" stroke="#0049B8" stroke-width="4" stroke-linecap="square"/>
<g clip-path="url(#clip0)">
<path d="M336 252H304" stroke="#3E4D5F" stroke-width="4" stroke-linecap="square"/>
<path d="M304 252H272" stroke="#3E4D5F" stroke-width="4" stroke-linecap="square"/>
<path d="M272 252H240" stroke="#3E4D5F" stroke-width="4" stroke-linecap="square"/>
<path d="M240 252H208" stroke="#3E4D5F" stroke-width="4" stroke-linecap="square"/>
<path d="M208 252H176" stroke="#3E4D5F" stroke-width="4" stroke-linecap="square"/>
<path d="M176 252H144" stroke="#3E4D5F" stroke-width="4" stroke-linecap="square"/>
<path d="M176 108L176 76" stroke="#3E4D5F" stroke-width="4" stroke-linecap="square"/>
<path d="M176 76L176 44" stroke="#3E4D5F" stroke-width="4" stroke-linecap="square"/>
<path d="M176 140L176 108" stroke="#3E4D5F" stroke-width="4" stroke-linecap="square"/>
<path d="M144 252L144 172" stroke="#3E4D5F" stroke-width="4" stroke-linecap="square"/>
<path d="M112 44L112 12" stroke="#3E4D5F" stroke-width="4" stroke-linecap="square"/>
<path d="M80 172L80 140" stroke="#3E4D5F" stroke-width="4" stroke-linecap="square"/>
<path d="M112 172H80" stroke="#3E4D5F" stroke-width="4" stroke-linecap="square"/>
<path d="M144 172H112" stroke="#3E4D5F" stroke-width="4" stroke-linecap="square"/>
<path d="M144 44L112 44" stroke="#3E4D5F" stroke-width="4" stroke-linecap="square"/>
<path d="M176 44L144 44" stroke="#3E4D5F" stroke-width="4" stroke-linecap="square"/>
<path d="M112 12L1.90735e-06 12" stroke="#3E4D5F" stroke-width="4" stroke-linecap="square"/>
<path d="M464 362H466V366H464V362ZM464 366H444V362H464V366Z" fill="#00030A"/>
<path d="M400 366L398 366L398 362L400 362L400 366ZM420 366L400 366L400 362L420 362L420 366Z" fill="#00030A"/>
<path fill-rule="evenodd" clip-rule="evenodd" d="M432 352C425.373 352 420 357.373 420 364C420 370.627 425.373 376 432 376C438.627 376 444 370.627 444 364C444 357.373 438.627 352 432 352Z" stroke="#FFB41F" stroke-width="4" stroke-linecap="square"/>
<path d="M440 356L424 372" stroke="#FFB41F" stroke-width="4"/>
<path d="M440 372L424 356" stroke="#FFB41F" stroke-width="4"/>
<path d="M528 364L528 300" stroke="#00030A" stroke-width="4" stroke-linecap="square"/>
<path d="M400 364L400 300" stroke="#00030A" stroke-width="4" stroke-linecap="square"/>
<path d="M848 362H850V366H848V362ZM848 366H828V362H848V366Z" fill="#00030A"/>
<path fill-rule="evenodd" clip-rule="evenodd" d="M816 352C809.373 352 804 357.373 804 364C804 370.627 809.373 376 816 376C822.627 376 828 370.627 828 364C828 357.373 822.627 352 816 352Z" stroke="#FFB41F" stroke-width="4" stroke-linecap="square"/>
<path d="M824 356L808 372" stroke="#FFB41F" stroke-width="4"/>
<path d="M824 372L808 356" stroke="#FFB41F" stroke-width="4"/>
<path d="M848 364L848 300" stroke="#00030A" stroke-width="4" stroke-linecap="square"/>
<path d="M208 298H210V302H208V298ZM208 302H196V298H208V302Z" fill="#00030A"/>
<path d="M196 300H156" stroke="#D62B36" stroke-width="4" stroke-linecap="square"/>
<path d="M144 302L142 302L142 298L144 298L144 302ZM156 302L144 302L144 298L156 298L156 302Z" fill="#00030A"/>
<rect x="-2" y="2" width="38" height="20" transform="matrix(-1 0 0 1 194 288)" stroke="#D62B36" stroke-width="4"/>
<path d="M336 300H272" stroke="#00030A" stroke-width="4" stroke-linecap="square"/>
<path d="M80 300L80 236" stroke="#00030A" stroke-width="4" stroke-linecap="square"/>
<path d="M144 140L144 76" stroke="#00030A" stroke-width="4" stroke-linecap="square"/>
<path d="M272 204L272 140" stroke="#00030A" stroke-width="4" stroke-linecap="square"/>
<path d="M208 204L208 140" stroke="#00030A" stroke-width="4" stroke-linecap="square"/>
<path d="M272 140L272 76" stroke="#00030A" stroke-width="4" stroke-linecap="square"/>
<path d="M208 140L208 76" stroke="#00030A" stroke-width="4" stroke-linecap="square"/>
<path d="M80 364L80 300" stroke="#00030A" stroke-width="4" stroke-linecap="square"/>
<path d="M144 298H146V302H144V298ZM144 302H120V298H144V302Z" fill="#00030A"/>
<path d="M80 302L78 302L78 298L80 298L80 302ZM104 302L80 302L80 298L104 298L104 302Z" fill="#00030A"/>
<path d="M124 288L102 300L124 312V288Z" fill="#FFB41F"/>
<path d="M102 288L102 312" stroke="#FFB41F" stroke-width="4"/>
<path d="M80 364H0" stroke="#00030A" stroke-width="4" stroke-linecap="square"/>
<path d="M80 236H0" stroke="#00030A" stroke-width="4" stroke-linecap="square"/>
<path d="M80 300H0" stroke="#00030A" stroke-width="4" stroke-linecap="square"/>
<path d="M272 298H274V302H272V298ZM272 302H256V298H272V302Z" fill="#00030A"/>
<path d="M208 302L206 302L206 298L208 298L208 302ZM224 302L208 302L208 298L224 298L224 302Z" fill="#00030A"/>
<circle r="4" transform="matrix(-1 0 0 1 252 300)" stroke="#00030A" stroke-width="4" stroke-linecap="square"/>
<circle r="4" transform="matrix(-1 0 0 1 228 300)" stroke="#00030A" stroke-width="4" stroke-linecap="square"/>
<path d="M240 312L240 288" stroke="#00030A" stroke-width="4" stroke-linecap="square"/>
<path d="M336 300L336 204" stroke="#00030A" stroke-width="4" stroke-linecap="square"/>
<path d="M400 300H336" stroke="#00030A" stroke-width="4" stroke-linecap="square"/>
<path d="M464 300H400" stroke="#00030A" stroke-width="4" stroke-linecap="square"/>
<path d="M464 204H400" stroke="#00030A" stroke-width="4" stroke-linecap="square"/>
<path d="M528 364H464" stroke="#00030A" stroke-width="4" stroke-linecap="square"/>
<path d="M528 298H530V302H528V298ZM528 302H508V298H528V302Z" fill="#00030A"/>
<path d="M464 302L462 302L462 298L464 298L464 302ZM484 302L464 302L464 298L484 298L484 302Z" fill="#00030A"/>
<path d="M497.721 305H494.277L490.987 295.06H494.137L495.691 300.968C495.845 301.57 495.929 301.948 495.971 302.354H496.027C496.069 301.948 496.153 301.57 496.307 300.968L497.861 295.06H501.011L497.721 305Z" fill="#0049B8"/>
<path fill-rule="evenodd" clip-rule="evenodd" d="M496 288C489.373 288 484 293.373 484 300C484 306.627 489.373 312 496 312C502.627 312 508 306.627 508 300C508 293.373 502.627 288 496 288Z" stroke="#0049B8" stroke-width="4" stroke-linecap="square"/>
<path d="M528 236L528 172" stroke="#00030A" stroke-width="4" stroke-linecap="square"/>
<path d="M528 300L528 236" stroke="#00030A" stroke-width="4" stroke-linecap="square"/>
<path d="M592 300H528" stroke="#00030A" stroke-width="4" stroke-linecap="square"/>
<path d="M656 298H658V302H656V298ZM656 302H644V298H656V302Z" fill="#00030A"/>
<path d="M644 300H604" stroke="#D62B36" stroke-width="4" stroke-linecap="square"/>
<path d="M592 302L590 302L590 298L592 298L592 302ZM604 302L592 302L592 298L604 298L604 302Z" fill="#00030A"/>
<rect x="-2" y="2" width="38" height="20" transform="matrix(-1 0 0 1 642 288)" stroke="#D62B36" stroke-width="4"/>
<path d="M720 298H722V302H720V298ZM720 302H704V298H720V302Z" fill="#00030A"/>
<path d="M656 302L654 302L654 298L656 298L656 302ZM672 302L656 302L656 298L672 298L672 302Z" fill="#00030A"/>
<circle r="4" transform="matrix(-1 0 0 1 700 300)" stroke="#00030A" stroke-width="4" stroke-linecap="square"/>
<circle r="4" transform="matrix(-1 0 0 1 676 300)" stroke="#00030A" stroke-width="4" stroke-linecap="square"/>
<path d="M688 312L688 288" stroke="#00030A" stroke-width="4" stroke-linecap="square"/>
<path d="M720 300L720 236" stroke="#00030A" stroke-width="4" stroke-linecap="square"/>
<path d="M784 300H720" stroke="#00030A" stroke-width="4" stroke-linecap="square"/>
<path d="M848 298H850V302H848V298ZM848 302H828V298H848V302Z" fill="#00030A"/>
<path d="M784 302L782 302L782 298L784 298L784 302ZM804 302L784 302L784 298L804 298L804 302Z" fill="#00030A"/>
<path d="M821.613 305H819.163V298.728C819.163 298.336 819.191 297.944 819.219 297.594H819.191C819.163 297.888 819.093 298.21 819.023 298.448L817.245 305H814.865L813.199 298.448C813.143 298.224 813.073 297.888 813.045 297.566H813.017C813.045 297.972 813.059 298.364 813.059 298.728V305H810.385V295.06H814.445L815.719 300.254C815.845 300.744 815.943 301.29 815.971 301.64H815.999C816.027 301.29 816.111 300.758 816.237 300.282L817.609 295.06H821.613V305Z" fill="#0049B8"/>
<path fill-rule="evenodd" clip-rule="evenodd" d="M816 288C809.373 288 804 293.373 804 300C804 306.627 809.373 312 816 312C822.627 312 828 306.627 828 300C828 293.373 822.627 288 816 288Z" stroke="#0049B8" stroke-width="4" stroke-linecap="square"/>
<path d="M848 300L848 236" stroke="#00030A" stroke-width="4" stroke-linecap="square"/>
<path d="M912 300H848" stroke="#00030A" stroke-width="4" stroke-linecap="square"/>
<path d="M976 298H978V302H976V298ZM976 302H964V298H976V302Z" fill="#00030A"/>
<path d="M964 300H924" stroke="#D62B36" stroke-width="4" stroke-linecap="square"/>
<path d="M912 302L910 302L910 298L912 298L912 302ZM924 302L912 302L912 298L924 298L924 302Z" fill="#00030A"/>
<rect x="-2" y="2" width="38" height="20" transform="matrix(-1 0 0 1 962 288)" stroke="#D62B36" stroke-width="4"/>
<path d="M1040 298H1042V302H1040V298ZM1040 302H1024V298H1040V302Z" fill="#00030A"/>
<path d="M976 302L974 302L974 298L976 298L976 302ZM992 302L976 302L976 298L992 298L992 302Z" fill="#00030A"/>
<circle r="4" transform="matrix(-1 0 0 1 1020 300)" stroke="#00030A" stroke-width="4" stroke-linecap="square"/>
<circle r="4" transform="matrix(-1 0 0 1 996 300)" stroke="#00030A" stroke-width="4" stroke-linecap="square"/>
<path d="M1008 312L1008 288" stroke="#00030A" stroke-width="4" stroke-linecap="square"/>
<path d="M1040 302L1038 302L1038 298L1040 298L1040 302ZM1056 302L1040 302L1040 298L1056 298L1056 302Z" fill="#00030A"/>
<path d="M400 202H402V206H400V202ZM400 206H380V202H400V206Z" fill="#00030A"/>
<path d="M336 206L334 206L334 202L336 202L336 206ZM356 206L336 206L336 202L356 202L356 206Z" fill="#00030A"/>
<path d="M373.613 209H371.163V202.728C371.163 202.336 371.191 201.944 371.219 201.594H371.191C371.163 201.888 371.093 202.21 371.023 202.448L369.245 209H366.865L365.199 202.448C365.143 202.224 365.073 201.888 365.045 201.566H365.017C365.045 201.972 365.059 202.364 365.059 202.728V209H362.385V199.06H366.445L367.719 204.254C367.845 204.744 367.943 205.29 367.971 205.64H367.999C368.027 205.29 368.111 204.758 368.237 204.282L369.609 199.06H373.613V209Z" fill="#0049B8"/>
<path fill-rule="evenodd" clip-rule="evenodd" d="M368 192C361.373 192 356 197.373 356 204C356 210.627 361.373 216 368 216C374.627 216 380 210.627 380 204C380 197.373 374.627 192 368 192Z" stroke="#0049B8" stroke-width="4" stroke-linecap="square"/>
<path d="M464 204L464 140" stroke="#00030A" stroke-width="4" stroke-linecap="square"/>
<path d="M528 234H530V238H528V234ZM528 238H508V234H528V238Z" fill="#00030A"/>
<path fill-rule="evenodd" clip-rule="evenodd" d="M496 224C489.373 224 484 229.373 484 236C484 242.627 489.373 248 496 248C502.627 248 508 242.627 508 236C508 229.373 502.627 224 496 224Z" stroke="#FFB41F" stroke-width="4" stroke-linecap="square"/>
<path d="M504 228L488 244" stroke="#FFB41F" stroke-width="4"/>
<path d="M504 244L488 228" stroke="#FFB41F" stroke-width="4"/>
<path d="M528 170H530V174H528V170ZM528 174H504V170H528V174Z" fill="#00030A"/>
<path d="M464 174L462 174L462 170L464 170L464 174ZM488 174L464 174L464 170L488 170L488 174Z" fill="#00030A"/>
<path d="M508 160L486 172L508 184V160Z" fill="#FFB41F"/>
<path d="M486 160L486 184" stroke="#FFB41F" stroke-width="4"/>
<path d="M144 74H146V78H144V74ZM144 78H120V74H144V78Z" fill="#00030A"/>
<path d="M80 78L78 78L78 74L80 74L80 78ZM104 78L80 78L80 74L104 74L104 78Z" fill="#00030A"/>
<path d="M124 64L102 76L124 88V64Z" fill="#FFB41F"/>
<path d="M102 64L102 88" stroke="#FFB41F" stroke-width="4"/>
<path d="M784 234H786V238H784V234ZM784 238H760V234H784V238Z" fill="#00030A"/>
<path d="M720 238L718 238L718 234L720 234L720 238ZM744 238L720 238L720 234L744 234L744 238Z" fill="#00030A"/>
<path d="M764 224L742 236L764 248V224Z" fill="#FFB41F"/>
<path d="M742 224L742 248" stroke="#FFB41F" stroke-width="4"/>
<path d="M848 234H850V238H848V234ZM848 238H836V234H848V238Z" fill="#00030A"/>
<path d="M836 236H796" stroke="#D62B36" stroke-width="4" stroke-linecap="square"/>
<path d="M784 238L782 238L782 234L784 234L784 238ZM796 238L784 238L784 234L796 234L796 238Z" fill="#00030A"/>
<rect x="-2" y="2" width="38" height="20" transform="matrix(-1 0 0 1 834 224)" stroke="#D62B36" stroke-width="4"/>
<path d="M400 138H402V142H400V138ZM400 142H380V138H400V142Z" fill="#00030A"/>
<path d="M336 142L334 142L334 138L336 138L336 142ZM356 142L336 142L336 138L356 138L356 142Z" fill="#00030A"/>
<path fill-rule="evenodd" clip-rule="evenodd" d="M368 128C361.373 128 356 133.373 356 140C356 146.627 361.373 152 368 152C374.627 152 380 146.627 380 140C380 133.373 374.627 128 368 128Z" stroke="#FFB41F" stroke-width="4" stroke-linecap="square"/>
<path d="M376 132L360 148" stroke="#FFB41F" stroke-width="4"/>
<path d="M376 148L360 132" stroke="#FFB41F" stroke-width="4"/>
<path d="M464 138H466V142H464V138ZM464 142H452V138H464V142Z" fill="#00030A"/>
<path d="M452 140H412" stroke="#D62B36" stroke-width="4" stroke-linecap="square"/>
<path d="M400 142L398 142L398 138L400 138L400 142ZM412 142L400 142L400 138L412 138L412 142Z" fill="#00030A"/>
<rect x="-2" y="2" width="38" height="20" transform="matrix(-1 0 0 1 450 128)" stroke="#D62B36" stroke-width="4"/>
<path d="M336 140H272" stroke="#00030A" stroke-width="4" stroke-linecap="square"/>
<path d="M80 76H0" stroke="#00030A" stroke-width="4" stroke-linecap="square"/>
<path d="M208 140H7.62939e-06" stroke="#00030A" stroke-width="4" stroke-linecap="square"/>
<path d="M272 202H274V206H272V202ZM272 206H252V202H272V206Z" fill="#00030A"/>
<path d="M208 206L206 206L206 202L208 202L208 206ZM228 206L208 206L208 202L228 202L228 206Z" fill="#00030A"/>
<path d="M237.665 209H234.739L238.267 199.06H241.739L245.267 209H242.341L241.711 206.97H238.295L237.665 209ZM241.109 205.01L240.451 202.854C240.283 202.308 240.129 201.846 240.017 201.09H239.989C239.877 201.846 239.723 202.308 239.555 202.854L238.897 205.01H241.109Z" fill="#0049B8"/>
<path fill-rule="evenodd" clip-rule="evenodd" d="M240 192C233.373 192 228 197.373 228 204C228 210.627 233.373 216 240 216C246.627 216 252 210.627 252 204C252 197.373 246.627 192 240 192Z" stroke="#0049B8" stroke-width="4" stroke-linecap="square"/>
<path d="M272 74H274V78H272V74ZM272 78H252V74H272V78Z" fill="#00030A"/>
<path d="M208 78L206 78L206 74L208 74L208 78ZM228 78L208 78L208 74L228 74L228 78Z" fill="#00030A"/>
<path d="M245.613 81H243.163V74.728C243.163 74.336 243.191 73.944 243.219 73.594H243.191C243.163 73.888 243.093 74.21 243.023 74.448L241.245 81H238.865L237.199 74.448C237.143 74.224 237.073 73.888 237.045 73.566H237.017C237.045 73.972 237.059 74.364 237.059 74.728V81H234.385V71.06H238.445L239.719 76.254C239.845 76.744 239.943 77.29 239.971 77.64H239.999C240.027 77.29 240.111 76.758 240.237 76.282L241.609 71.06H245.613V81Z" fill="#0049B8"/>
<path fill-rule="evenodd" clip-rule="evenodd" d="M240 64C233.373 64 228 69.3726 228 76C228 82.6274 233.373 88 240 88C246.627 88 252 82.6274 252 76C252 69.3726 246.627 64 240 64Z" stroke="#0049B8" stroke-width="4" stroke-linecap="square"/>
</g>
<defs>
<clipPath id="clip0">
<rect width="1040" height="388" fill="white" transform="matrix(-1 0 0 1 1040 0)"/>
</clipPath>
</defs>
</svg>
