<svg width="1208" height="388" viewBox="0 0 1208 388" fill="none" xmlns="http://www.w3.org/2000/svg">
<path d="M872 252H904" stroke="#374151" stroke-width="4" stroke-linecap="square"/>
<path d="M904 252H936" stroke="#374151" stroke-width="4" stroke-linecap="square"/>
<path d="M936 252H968" stroke="#374151" stroke-width="4" stroke-linecap="square"/>
<path d="M968 252H1000" stroke="#374151" stroke-width="4" stroke-linecap="square"/>
<path d="M1000 252H1032" stroke="#374151" stroke-width="4" stroke-linecap="square"/>
<path d="M1032 252H1064" stroke="#374151" stroke-width="4" stroke-linecap="square"/>
<path d="M1032 108L1032 76" stroke="#374151" stroke-width="4" stroke-linecap="square"/>
<path d="M1032 76L1032 44" stroke="#374151" stroke-width="4" stroke-linecap="square"/>
<path d="M1032 140L1032 108" stroke="#374151" stroke-width="4" stroke-linecap="square"/>
<path d="M1064 252L1064 172" stroke="#374151" stroke-width="4" stroke-linecap="square"/>
<path d="M1096 44L1096 12" stroke="#374151" stroke-width="4" stroke-linecap="square"/>
<path d="M1128 172L1128 140" stroke="#374151" stroke-width="4" stroke-linecap="square"/>
<path d="M1096 172H1128" stroke="#374151" stroke-width="4" stroke-linecap="square"/>
<path d="M1064 172H1096" stroke="#374151" stroke-width="4" stroke-linecap="square"/>
<path d="M1064 44L1096 44" stroke="#374151" stroke-width="4" stroke-linecap="square"/>
<path d="M1032 44L1064 44" stroke="#374151" stroke-width="4" stroke-linecap="square"/>
<path d="M1096 12L1208 12" stroke="#374151" stroke-width="4" stroke-linecap="square"/>
<path d="M744 362H742V366H744V362ZM744 366H764V362H744V366Z" fill="#00030A"/>
<path d="M808 366L810 366L810 362L808 362L808 366ZM788 366L808 366L808 362L788 362L788 366Z" fill="#00030A"/>
<path fill-rule="evenodd" clip-rule="evenodd" d="M776 352C782.627 352 788 357.373 788 364C788 370.627 782.627 376 776 376C769.373 376 764 370.627 764 364C764 357.373 769.373 352 776 352Z" stroke="#FFB41F" stroke-width="4" stroke-linecap="square"/>
<path d="M768 356L784 372" stroke="#FFB41F" stroke-width="4"/>
<path d="M768 372L784 356" stroke="#FFB41F" stroke-width="4"/>
<path d="M680 364L680 300" stroke="#00030A" stroke-width="4" stroke-linecap="square"/>
<path d="M808 364L808 300" stroke="#00030A" stroke-width="4" stroke-linecap="square"/>
<path d="M360 362H358V366H360V362ZM360 366H380V362H360V366Z" fill="#00030A"/>
<path fill-rule="evenodd" clip-rule="evenodd" d="M392 352C398.627 352 404 357.373 404 364C404 370.627 398.627 376 392 376C385.373 376 380 370.627 380 364C380 357.373 385.373 352 392 352Z" stroke="#FFB41F" stroke-width="4" stroke-linecap="square"/>
<path d="M384 356L400 372" stroke="#FFB41F" stroke-width="4"/>
<path d="M384 372L400 356" stroke="#FFB41F" stroke-width="4"/>
<path d="M360 364L360 300" stroke="#00030A" stroke-width="4" stroke-linecap="square"/>
<path d="M1000 298H998V302H1000V298ZM1000 302H1012V298H1000V302Z" fill="#00030A"/>
<path d="M1012 300H1052" stroke="#D62B36" stroke-width="4" stroke-linecap="square"/>
<path d="M1064 302L1066 302L1066 298L1064 298L1064 302ZM1052 302L1064 302L1064 298L1052 298L1052 302Z" fill="#00030A"/>
<rect x="1012" y="290" width="38" height="20" stroke="#D62B36" stroke-width="4"/>
<path d="M872 300H936" stroke="#00030A" stroke-width="4" stroke-linecap="square"/>
<path d="M1128 300L1128 236" stroke="#00030A" stroke-width="4" stroke-linecap="square"/>
<path d="M1064 140L1064 76" stroke="#00030A" stroke-width="4" stroke-linecap="square"/>
<path d="M936 204L936 140" stroke="#00030A" stroke-width="4" stroke-linecap="square"/>
<path d="M1000 204L1000 140" stroke="#00030A" stroke-width="4" stroke-linecap="square"/>
<path d="M936 140L936 76" stroke="#00030A" stroke-width="4" stroke-linecap="square"/>
<path d="M1000 140L1000 76" stroke="#00030A" stroke-width="4" stroke-linecap="square"/>
<path d="M1128 364L1128 300" stroke="#00030A" stroke-width="4" stroke-linecap="square"/>
<path d="M1064 298H1062V302H1064V298ZM1064 302H1088V298H1064V302Z" fill="#00030A"/>
<path d="M1128 302L1130 302L1130 298L1128 298L1128 302ZM1104 302L1128 302L1128 298L1104 298L1104 302Z" fill="#00030A"/>
<path d="M1084 288L1106 300L1084 312V288Z" fill="#FFB41F"/>
<path d="M1106 288L1106 312" stroke="#FFB41F" stroke-width="4"/>
<path d="M1128 364H1208" stroke="#00030A" stroke-width="4" stroke-linecap="square"/>
<path d="M1128 236H1208" stroke="#00030A" stroke-width="4" stroke-linecap="square"/>
<path d="M1128 300H1208" stroke="#00030A" stroke-width="4" stroke-linecap="square"/>
<path d="M936 298H934V302H936V298ZM936 302H952V298H936V302Z" fill="#00030A"/>
<path d="M1000 302L1002 302L1002 298L1000 298L1000 302ZM984 302L1000 302L1000 298L984 298L984 302Z" fill="#00030A"/>
<circle cx="956" cy="300" r="4" stroke="#00030A" stroke-width="4" stroke-linecap="square"/>
<circle cx="980" cy="300" r="4" stroke="#00030A" stroke-width="4" stroke-linecap="square"/>
<path d="M968 312L968 288" stroke="#00030A" stroke-width="4" stroke-linecap="square"/>
<path d="M872 300L872 204" stroke="#00030A" stroke-width="4" stroke-linecap="square"/>
<path d="M808 300H872" stroke="#00030A" stroke-width="4" stroke-linecap="square"/>
<path d="M744 300H808" stroke="#00030A" stroke-width="4" stroke-linecap="square"/>
<path d="M744 204H808" stroke="#00030A" stroke-width="4" stroke-linecap="square"/>
<path d="M680 364H744" stroke="#00030A" stroke-width="4" stroke-linecap="square"/>
<path d="M680 298H678V302H680V298ZM680 302H700V298H680V302Z" fill="#00030A"/>
<path d="M744 302L746 302L746 298L744 298L744 302ZM724 302L744 302L744 298L724 298L724 302Z" fill="#00030A"/>
<path d="M710.279 305H713.723L717.013 295.06H713.863L712.309 300.968C712.155 301.57 712.071 301.948 712.029 302.354H711.973C711.931 301.948 711.847 301.57 711.693 300.968L710.139 295.06H706.989L710.279 305Z" fill="#0049B8"/>
<path fill-rule="evenodd" clip-rule="evenodd" d="M712 288C718.627 288 724 293.373 724 300C724 306.627 718.627 312 712 312C705.373 312 700 306.627 700 300C700 293.373 705.373 288 712 288Z" stroke="#0049B8" stroke-width="4" stroke-linecap="square"/>
<path d="M680 236L680 172" stroke="#00030A" stroke-width="4" stroke-linecap="square"/>
<path d="M680 300L680 236" stroke="#00030A" stroke-width="4" stroke-linecap="square"/>
<path d="M616 300H680" stroke="#00030A" stroke-width="4" stroke-linecap="square"/>
<path d="M552 298H550V302H552V298ZM552 302H564V298H552V302Z" fill="#00030A"/>
<path d="M564 300H604" stroke="#D62B36" stroke-width="4" stroke-linecap="square"/>
<path d="M616 302L618 302L618 298L616 298L616 302ZM604 302L616 302L616 298L604 298L604 302Z" fill="#00030A"/>
<rect x="564" y="290" width="38" height="20" stroke="#D62B36" stroke-width="4"/>
<path d="M488 298H486V302H488V298ZM488 302H504V298H488V302Z" fill="#00030A"/>
<path d="M552 302L554 302L554 298L552 298L552 302ZM536 302L552 302L552 298L536 298L536 302Z" fill="#00030A"/>
<circle cx="508" cy="300" r="4" stroke="#00030A" stroke-width="4" stroke-linecap="square"/>
<circle cx="532" cy="300" r="4" stroke="#00030A" stroke-width="4" stroke-linecap="square"/>
<path d="M520 312L520 288" stroke="#00030A" stroke-width="4" stroke-linecap="square"/>
<path d="M488 300L488 236" stroke="#00030A" stroke-width="4" stroke-linecap="square"/>
<path d="M424 300H488" stroke="#00030A" stroke-width="4" stroke-linecap="square"/>
<path d="M360 298H358V302H360V298ZM360 302H380V298H360V302Z" fill="#00030A"/>
<path d="M424 302L426 302L426 298L424 298L424 302ZM404 302L424 302L424 298L404 298L404 302Z" fill="#00030A"/>
<path d="M386.387 305H388.837V298.728C388.837 298.336 388.809 297.944 388.781 297.594H388.809C388.837 297.888 388.907 298.21 388.977 298.448L390.755 305H393.135L394.801 298.448C394.857 298.224 394.927 297.888 394.955 297.566H394.983C394.955 297.972 394.941 298.364 394.941 298.728V305H397.615V295.06H393.555L392.281 300.254C392.155 300.744 392.057 301.29 392.029 301.64H392.001C391.973 301.29 391.889 300.758 391.763 300.282L390.391 295.06H386.387V305Z" fill="#0049B8"/>
<path fill-rule="evenodd" clip-rule="evenodd" d="M392 288C398.627 288 404 293.373 404 300C404 306.627 398.627 312 392 312C385.373 312 380 306.627 380 300C380 293.373 385.373 288 392 288Z" stroke="#0049B8" stroke-width="4" stroke-linecap="square"/>
<path d="M360 300L360 236" stroke="#00030A" stroke-width="4" stroke-linecap="square"/>
<path d="M296 300H360" stroke="#00030A" stroke-width="4" stroke-linecap="square"/>
<path d="M232 298H230V302H232V298ZM232 302H244V298H232V302Z" fill="#00030A"/>
<path d="M244 300H284" stroke="#D62B36" stroke-width="4" stroke-linecap="square"/>
<path d="M296 302L298 302L298 298L296 298L296 302ZM284 302L296 302L296 298L284 298L284 302Z" fill="#00030A"/>
<rect x="244" y="290" width="38" height="20" stroke="#D62B36" stroke-width="4"/>
<path d="M168 298H166V302H168V298ZM168 302H184V298H168V302Z" fill="#00030A"/>
<path d="M232 302L234 302L234 298L232 298L232 302ZM216 302L232 302L232 298L216 298L216 302Z" fill="#00030A"/>
<circle cx="188" cy="300" r="4" stroke="#00030A" stroke-width="4" stroke-linecap="square"/>
<circle cx="212" cy="300" r="4" stroke="#00030A" stroke-width="4" stroke-linecap="square"/>
<path d="M200 312L200 288" stroke="#00030A" stroke-width="4" stroke-linecap="square"/>
<path opacity="0.12" d="M167.5 300C167.5 317.397 153.397 331.5 136 331.5C118.603 331.5 104.5 317.397 104.5 300C104.5 282.603 118.603 268.5 136 268.5C153.397 268.5 167.5 282.603 167.5 300Z" stroke="#00030A"/>
<path opacity="0.12" d="M161 300C161 313.807 149.807 325 136 325C122.193 325 111 313.807 111 300C111 286.193 122.193 275 136 275C149.807 275 161 286.193 161 300Z" stroke="#00030A" stroke-width="2"/>
<path d="M104 298H102V302H104V298ZM104 302H120V298H104V302Z" fill="#00030A"/>
<path d="M168 302L170 302L170 298L168 298L168 302ZM152 302L168 302L168 298L152 298L152 302Z" fill="#00030A"/>
<path fill-rule="evenodd" clip-rule="evenodd" d="M136 284C144.837 284 152 291.163 152 300C152 308.837 144.837 316 136 316C127.163 316 120 308.837 120 300C120 291.163 127.163 284 136 284Z" stroke="#00030A" stroke-width="4" stroke-linecap="square"/>
<path fill-rule="evenodd" clip-rule="evenodd" d="M137 293H143L139 299H143L135 309V305H129L137 293Z" fill="black"/>
<path fill-rule="evenodd" clip-rule="evenodd" d="M129 293H135L136 294.5L133 299L129 293Z" fill="black"/>
<path d="M0 300H104" stroke="#00030A" stroke-width="4" stroke-linecap="square"/>
<path d="M808 202H806V206H808V202ZM808 206H828V202H808V206Z" fill="#00030A"/>
<path d="M872 206L874 206L874 202L872 202L872 206ZM852 206L872 206L872 202L852 202L852 206Z" fill="#00030A"/>
<path d="M834.387 209H836.837V202.728C836.837 202.336 836.809 201.944 836.781 201.594H836.809C836.837 201.888 836.907 202.21 836.977 202.448L838.755 209H841.135L842.801 202.448C842.857 202.224 842.927 201.888 842.955 201.566H842.983C842.955 201.972 842.941 202.364 842.941 202.728V209H845.615V199.06H841.555L840.281 204.254C840.155 204.744 840.057 205.29 840.029 205.64H840.001C839.973 205.29 839.889 204.758 839.763 204.282L838.391 199.06H834.387V209Z" fill="#0049B8"/>
<path fill-rule="evenodd" clip-rule="evenodd" d="M840 192C846.627 192 852 197.373 852 204C852 210.627 846.627 216 840 216C833.373 216 828 210.627 828 204C828 197.373 833.373 192 840 192Z" stroke="#0049B8" stroke-width="4" stroke-linecap="square"/>
<path d="M744 204L744 140" stroke="#00030A" stroke-width="4" stroke-linecap="square"/>
<path d="M680 234H678V238H680V234ZM680 238H700V234H680V238Z" fill="#00030A"/>
<path fill-rule="evenodd" clip-rule="evenodd" d="M712 224C718.627 224 724 229.373 724 236C724 242.627 718.627 248 712 248C705.373 248 700 242.627 700 236C700 229.373 705.373 224 712 224Z" stroke="#FFB41F" stroke-width="4" stroke-linecap="square"/>
<path d="M704 228L720 244" stroke="#FFB41F" stroke-width="4"/>
<path d="M704 244L720 228" stroke="#FFB41F" stroke-width="4"/>
<path d="M680 170H678V174H680V170ZM680 174H704V170H680V174Z" fill="#00030A"/>
<path d="M744 174L746 174L746 170L744 170L744 174ZM720 174L744 174L744 170L720 170L720 174Z" fill="#00030A"/>
<path d="M700 160L722 172L700 184V160Z" fill="#FFB41F"/>
<path d="M722 160L722 184" stroke="#FFB41F" stroke-width="4"/>
<path d="M1064 74H1062V78H1064V74ZM1064 78H1088V74H1064V78Z" fill="#00030A"/>
<path d="M1128 78L1130 78L1130 74L1128 74L1128 78ZM1104 78L1128 78L1128 74L1104 74L1104 78Z" fill="#00030A"/>
<path d="M1084 64L1106 76L1084 88V64Z" fill="#FFB41F"/>
<path d="M1106 64L1106 88" stroke="#FFB41F" stroke-width="4"/>
<path d="M424 234H422V238H424V234ZM424 238H448V234H424V238Z" fill="#00030A"/>
<path d="M488 238L490 238L490 234L488 234L488 238ZM464 238L488 238L488 234L464 234L464 238Z" fill="#00030A"/>
<path d="M444 224L466 236L444 248V224Z" fill="#FFB41F"/>
<path d="M466 224L466 248" stroke="#FFB41F" stroke-width="4"/>
<path d="M360 234H358V238H360V234ZM360 238H372V234H360V238Z" fill="#00030A"/>
<path d="M372 236H412" stroke="#D62B36" stroke-width="4" stroke-linecap="square"/>
<path d="M424 238L426 238L426 234L424 234L424 238ZM412 238L424 238L424 234L412 234L412 238Z" fill="#00030A"/>
<rect x="372" y="226" width="38" height="20" stroke="#D62B36" stroke-width="4"/>
<path d="M808 138H806V142H808V138ZM808 142H828V138H808V142Z" fill="#00030A"/>
<path d="M872 142L874 142L874 138L872 138L872 142ZM852 142L872 142L872 138L852 138L852 142Z" fill="#00030A"/>
<path fill-rule="evenodd" clip-rule="evenodd" d="M840 128C846.627 128 852 133.373 852 140C852 146.627 846.627 152 840 152C833.373 152 828 146.627 828 140C828 133.373 833.373 128 840 128Z" stroke="#FFB41F" stroke-width="4" stroke-linecap="square"/>
<path d="M832 132L848 148" stroke="#FFB41F" stroke-width="4"/>
<path d="M832 148L848 132" stroke="#FFB41F" stroke-width="4"/>
<path d="M744 138H742V142H744V138ZM744 142H756V138H744V142Z" fill="#00030A"/>
<path d="M756 140H796" stroke="#D62B36" stroke-width="4" stroke-linecap="square"/>
<path d="M808 142L810 142L810 138L808 138L808 142ZM796 142L808 142L808 138L796 138L796 142Z" fill="#00030A"/>
<rect x="756" y="130" width="38" height="20" stroke="#D62B36" stroke-width="4"/>
<path d="M872 140H936" stroke="#00030A" stroke-width="4" stroke-linecap="square"/>
<path d="M1128 76H1208" stroke="#00030A" stroke-width="4" stroke-linecap="square"/>
<path d="M1000 140H1208" stroke="#00030A" stroke-width="4" stroke-linecap="square"/>
<path d="M936 202H934V206H936V202ZM936 206H956V202H936V206Z" fill="#00030A"/>
<path d="M1000 206L1002 206L1002 202L1000 202L1000 206ZM980 206L1000 206L1000 202L980 202L980 206Z" fill="#00030A"/>
<path d="M970.335 209H973.261L969.733 199.06H966.261L962.733 209H965.659L966.289 206.97H969.705L970.335 209ZM966.891 205.01L967.549 202.854C967.717 202.308 967.871 201.846 967.983 201.09H968.011C968.123 201.846 968.277 202.308 968.445 202.854L969.103 205.01H966.891Z" fill="#0049B8"/>
<path fill-rule="evenodd" clip-rule="evenodd" d="M968 192C974.627 192 980 197.373 980 204C980 210.627 974.627 216 968 216C961.373 216 956 210.627 956 204C956 197.373 961.373 192 968 192Z" stroke="#0049B8" stroke-width="4" stroke-linecap="square"/>
<path d="M936 74H934V78H936V74ZM936 78H956V74H936V78Z" fill="#00030A"/>
<path d="M1000 78L1002 78L1002 74L1000 74L1000 78ZM980 78L1000 78L1000 74L980 74L980 78Z" fill="#00030A"/>
<path d="M962.387 81H964.837V74.728C964.837 74.336 964.809 73.944 964.781 73.594H964.809C964.837 73.888 964.907 74.21 964.977 74.448L966.755 81H969.135L970.801 74.448C970.857 74.224 970.927 73.888 970.955 73.566H970.983C970.955 73.972 970.941 74.364 970.941 74.728V81H973.615V71.06H969.555L968.281 76.254C968.155 76.744 968.057 77.29 968.029 77.64H968.001C967.973 77.29 967.889 76.758 967.763 76.282L966.391 71.06H962.387V81Z" fill="#0049B8"/>
<path fill-rule="evenodd" clip-rule="evenodd" d="M968 64C974.627 64 980 69.3726 980 76C980 82.6274 974.627 88 968 88C961.373 88 956 82.6274 956 76C956 69.3726 961.373 64 968 64Z" stroke="#0049B8" stroke-width="4" stroke-linecap="square"/>
</svg>
