<?xml version="1.0" encoding="UTF-8"?>
<svg width="481px" height="482px" viewBox="0 0 481 482" version="1.1" xmlns="http://www.w3.org/2000/svg" xmlns:xlink="http://www.w3.org/1999/xlink">
    <!-- Generator: Sketch 61 (89581) - https://sketch.com -->
    <title>Group 35</title>
    <desc>Created with Sketch.</desc>
    <g id="ðŸ´-Last-Work" stroke="none" stroke-width="1" fill="none" fill-rule="evenodd">
        <g id="DESKTOP-HD" transform="translate(-959.000000, -751.000000)">
            <g id="Group-3" transform="translate(960.000000, 752.000000)">
                <g id="Group-35" transform="translate(240.000000, 240.000000) rotate(-270.000000) translate(-240.000000, -240.000000) ">
                    <path d="M369.6342,345.5297 L369.9462,345.8617 L371.0762,354.8207 L396.1482,381.4187 L405.0262,383.0757 L405.3392,383.4077 L387.3522,400.3587 L387.0392,400.0267 L385.9092,391.0677 L357.6582,361.0957 L349.9102,368.3977 L352.0332,387.2807 L351.4802,387.8017 L340.0802,373.3797 L369.6342,345.5297 Z M112.9505,342.8227 L129.4985,362.5917 L129.1485,362.8847 L120.1365,363.4857 L92.1075,386.9497 L89.9295,395.7157 L89.5805,396.0077 L75.6205,379.3287 C66.1015,367.9567 64.2675,358.7807 72.1345,352.1947 C81.5755,344.2917 93.0365,350.1697 101.5295,360.3177 L101.7245,360.5507 L110.9905,352.7937 L112.6005,343.1147 L112.9505,342.8227 Z M82.9445,362.3867 C75.9525,368.2407 75.3245,374.1207 78.7415,378.2027 L79.5225,379.1367 L99.3345,362.5507 L99.0905,362.2587 C94.8445,357.1857 89.6465,356.7767 82.9445,362.3867 Z M393.8414,306.1459 L394.2324,306.3809 L397.7424,314.7029 L429.0664,333.5429 L438.0614,332.7409 L438.4524,332.9769 L417.6844,367.5169 L403.0964,358.7429 L403.4884,358.0909 L421.3234,355.4189 L425.7904,347.9889 L408.4024,337.5309 L400.0554,351.4119 L397.1254,349.6499 L405.4714,335.7689 L386.5204,324.3699 L381.0344,333.4939 L388.1814,351.1039 L387.7904,351.7549 L372.9184,340.9459 L393.8414,306.1459 Z M83.5482,289.8905 L100.2022,326.9325 L99.7862,327.1195 L90.9482,325.2565 L57.6052,340.2515 L53.1342,348.0995 L52.7182,348.2865 L42.5812,325.7425 L42.9972,325.5555 L51.8352,327.4185 L89.4072,310.5225 L85.0412,300.8105 L66.4982,296.6405 L66.1862,295.9475 L83.5482,289.8905 Z M456.9562,207.7404 L457.7722,230.6934 C458.2992,245.5134 454.2602,253.8764 444.8422,254.2094 C438.6132,254.4284 434.5232,250.6164 432.0362,244.8444 L414.5972,254.8974 L407.2552,262.3104 L406.9424,262.320912 L412.1634,268.774 L447.4874,278.184 L455.9084,274.917 L456.3484,275.035 L445.9734,313.982 L429.5224,309.601 L429.7184,308.866 L446.1144,301.35 L448.3454,292.972 L428.7374,287.749 L424.5674,303.401 L421.2624,302.522 L425.4324,286.868 L404.0614,281.176 L401.3204,291.464 L413.0724,306.399 L412.8764,307.135 L395.5874,300.877 L406.0424,261.635 L406.4824,261.752 L406.7924,262.134912 L406.1372,243.7054 L411.7022,241.9114 L428.1942,233.0334 C428.0752,231.8194 427.9562,230.6064 427.9182,229.5424 L427.8692,228.1734 L413.3612,228.6864 L406.2592,234.2644 L405.8022,234.2814 L404.9252,209.5804 L405.3812,209.5634 L412.8622,214.6264 L449.3972,213.3344 L456.5012,207.7554 L456.9562,207.7404 Z M75.0886,236.0356 L78.6306,262.2606 L78.1786,262.3226 L70.2366,258.0226 L63.1316,262.2046 L65.4216,279.1606 L73.3906,281.3846 L79.9096,275.1336 L80.3616,275.0736 L82.2746,289.2416 L81.8226,289.3016 L73.8796,285.0016 L26.8276,271.6296 L26.3176,267.8616 L68.1196,242.3466 L74.6366,236.0956 L75.0886,236.0356 Z M60.2266,263.9766 L44.3876,273.3276 L62.1616,278.2956 L60.2266,263.9766 Z M454.5312,227.2314 L431.1352,228.0584 C431.0812,228.6684 431.0302,229.3554 431.0642,230.3434 C431.2752,236.2724 434.5952,239.8074 442.4952,239.5284 C451.0022,239.2274 454.8062,234.9834 454.6172,229.6634 L454.5312,227.2314 Z M30.0554,188.0723 L30.5084,188.1303 L36.9744,195.0893 L57.4854,209.6693 L71.7344,211.4893 L79.6474,207.1333 L80.0994,207.1903 L76.9654,231.7083 L76.5134,231.6503 L69.9514,225.4453 L55.7014,223.6253 L32.1814,232.5823 L24.1724,237.6933 L23.7204,237.6353 L27.1154,211.0813 L27.5674,211.1383 L34.2264,216.5893 L52.6754,210.1283 L36.4924,198.8613 L28.6754,202.4633 L28.2234,202.4053 L30.0554,188.0723 Z M422.8063,115.6175 L433.6183,139.7725 L433.2023,139.9595 L424.3683,138.0815 L403.7393,156.7305 L428.2293,155.2665 L436.3703,147.0395 L436.7873,146.8525 L446.2313,167.9545 L445.8143,168.1405 L437.3533,167.0955 L417.4663,185.9135 L444.8093,183.7545 L449.2943,175.9155 L449.7113,175.7285 L455.5513,188.7785 L455.1353,188.9635 L446.3013,187.0855 L398.6343,190.3445 L397.0803,186.8745 L424.4593,159.1205 L385.3373,160.6355 L383.7833,157.1655 L417.9063,123.6435 L422.3903,115.8035 L422.8063,115.6175 Z M76.3206,120.4909 C83.7086,125.0159 87.6366,137.2299 88.1956,155.6729 L97.2906,140.8219 L93.5486,129.6139 L93.9466,128.9659 L109.6876,141.1009 L91.1386,171.3859 L88.9996,170.0749 C85.2596,154.4989 77.4546,138.5739 67.6026,132.5419 C63.4546,130.0019 59.2096,129.3649 57.2236,132.6069 C54.9596,136.3039 57.1936,142.8439 63.9436,151.6129 L63.5456,152.2619 L47.7306,142.5779 L54.6416,131.2939 C59.7256,122.9929 67.8936,115.3319 76.3206,120.4909 Z M394.6856,86.3311 C405.9276,97.4611 405.6856,112.4071 394.5106,123.6931 C382.8556,135.4661 367.5336,135.2671 356.3996,124.2431 C345.1586,113.1121 345.3996,98.1661 356.5746,86.8801 C368.2306,75.1081 383.5516,75.3071 394.6856,86.3311 Z M128.4634,85.4575 C139.7114,97.6225 140.1204,111.7315 130.4024,120.7135 C120.6284,129.7475 106.9364,127.7085 96.1544,116.0455 C84.9084,103.8805 84.4994,89.7715 94.2154,80.7895 C103.9894,71.7555 117.6814,73.7945 128.4634,85.4575 Z M370.6426,93.8581 C359.5216,105.0911 354.5376,117.9081 360.2666,123.5801 C364.1036,127.3801 371.2996,126.0571 380.4956,116.7681 C391.6706,105.4821 396.6016,92.7191 390.8726,87.0471 C387.0356,83.2471 379.8926,84.5171 370.6426,93.8581 Z M94.4844,84.8875 C92.4184,86.7975 93.3774,91.0845 101.6834,100.0695 C112.6714,111.9555 126.0574,120.3825 130.1904,116.5635 C132.2564,114.6535 131.2454,110.3105 122.9904,101.3815 C111.9504,89.4405 98.6174,81.0685 94.4844,84.8875 Z M141.7722,47.4756 L163.8602,86.7636 L172.7402,90.1436 L172.9632,90.5406 L149.1622,103.9176 L148.9382,103.5206 L151.5202,93.5246 L137.8502,69.2096 L131.6182,72.7116 L131.3952,72.3146 L140.7122,48.0716 L141.7722,47.4756 Z M307.0465,32.254 L329.4425,42.708 L329.2505,43.121 L321.3395,47.481 L314.6205,61.873 L331.5025,69.754 L338.2225,55.361 L336.4855,46.499 L336.6775,46.086 L359.0735,56.539 L358.8795,56.952 L350.9705,61.312 L335.5055,94.435 L337.2435,103.297 L337.0505,103.711 L314.6555,93.257 L314.8475,92.844 L322.7575,88.484 L330.0555,72.853 L313.1735,64.972 L305.8755,80.604 L307.6125,89.466 L307.4195,89.879 L285.0245,79.426 L285.2165,79.013 L293.1265,74.653 L308.5915,41.53 L306.8545,32.668 L307.0465,32.254 Z M204.2226,46.6029 C208.8156,61.8079 199.2846,77.0709 180.5626,88.2039 L179.6576,87.0489 C188.4636,78.5929 192.9306,71.2899 191.9436,60.3939 C189.5456,63.4999 186.8606,64.8659 184.1656,65.6809 C175.5766,68.2749 166.4966,65.3009 163.5516,55.5519 C160.1236,44.2019 168.5506,35.5439 178.1606,32.6419 C188.9346,29.3879 200.3116,33.6519 204.2226,46.6029 Z M269.0872,25.8958 L284.7842,27.8408 L282.7212,44.5098 L281.9662,44.4158 C279.4942,36.5288 274.3542,29.7648 267.6382,28.9318 C263.4122,28.4078 260.2542,30.3908 259.8052,34.0118 C259.3112,38.0088 262.3812,41.0698 267.3452,43.6758 L272.8092,46.5738 C279.0672,49.8768 284.9872,54.6688 283.8302,64.0228 C282.5962,73.9778 274.5022,79.9438 262.8052,78.4938 C259.4832,78.0818 256.2662,77.4538 251.8412,76.0628 L244.0882,76.1738 L243.3332,76.0808 L245.9012,55.3388 L246.6562,55.4328 C250.0962,67.8818 255.7242,74.4008 263.5742,75.3728 C268.4042,75.9718 271.4762,74.0548 271.9432,70.2828 C272.4202,66.4368 270.1042,62.8578 263.0542,59.1498 L257.5892,56.2508 C251.8312,53.2398 247.0322,47.4388 248.0322,39.3678 C249.1992,29.9398 257.3882,24.4448 269.0872,25.8958 Z M177.9766,35.7139 C174.9186,36.6379 174.1306,40.6079 176.0866,47.0819 C178.7016,55.7399 183.3646,60.9209 188.2426,59.4469 C189.4076,59.0959 190.5566,58.4309 191.5526,57.2569 C191.1776,55.2269 190.6866,53.0719 189.9836,50.7439 C186.6216,39.6129 181.9806,34.5049 177.9766,35.7139 Z" id="Combined-Shape" fill="#06080A"></path>
                    <path d="M240,0 C107.451,0 0,107.451 0,240 C0,372.549 107.451,480 240,480 C372.549,480 480,372.549 480,240 C480,107.451 372.549,0 240,0 M240,1 C272.266,1 303.564,7.319 333.029,19.781 C361.489,31.818 387.049,49.052 408.998,71.002 C430.948,92.951 448.182,118.511 460.219,146.971 C472.681,176.436 479,207.734 479,240 C479,272.266 472.681,303.564 460.219,333.029 C448.182,361.489 430.948,387.049 408.998,408.998 C387.049,430.948 361.489,448.182 333.029,460.219 C303.564,472.681 272.266,479 240,479 C207.734,479 176.436,472.681 146.971,460.219 C118.511,448.182 92.951,430.948 71.002,408.998 C49.052,387.049 31.818,361.489 19.781,333.029 C7.319,303.564 1,272.266 1,240 C1,207.734 7.319,176.436 19.781,146.971 C31.818,118.511 49.052,92.951 71.002,71.002 C92.951,49.052 118.511,31.818 146.971,19.781 C176.436,7.319 207.734,1 240,1" id="Fill-33" stroke=""></path>
                </g>
            </g>
        </g>
    </g>
</svg>
