<?xml version="1.0" encoding="UTF-8"?>
<svg width="16px" height="16px" viewBox="0 0 16 16" version="1.1" xmlns="http://www.w3.org/2000/svg" xmlns:xlink="http://www.w3.org/1999/xlink">
    <!-- Generator: Sketch 61 (89581) - https://sketch.com -->
    <title>Group 5</title>
    <desc>Created with Sketch.</desc>
    <g id="ðŸ´-Last-Work" stroke="none" stroke-width="1" fill="none" fill-rule="evenodd" opacity="0.40">
        <g id="MOBILE" transform="translate(-177.000000, -3392.000000)">
            <g id="Group-7" transform="translate(40.000000, 3351.000000)">
                <g id="Group-5" transform="translate(137.000000, 41.000000)">
                    <polygon id="Stroke-1" fill="" points="0 0 16 0 16 16 0 16"></polygon>
                    <path d="M12.6666659,12.6666659 L3.33333313,12.6666659 L3.33333313,3.33333313 L7.99999988,3.33333313 L7.99999988,1.99999988 L3.33333313,1.99999988 C2.59333311,1.99999988 1.99999988,2.59999991 1.99999988,3.33333313 L1.99999988,12.6666659 C1.99999988,13.3999992 2.59333311,13.9999999 3.33333313,13.9999999 L12.6666659,13.9999999 C13.3999992,13.9999999 13.9999999,13.3999992 13.9999999,12.6666659 L13.9999999,7.99999988 L12.6666659,7.99999988 L12.6666659,12.6666659 Z M9.33333277,1.99999988 L9.33333277,3.33333313 L11.726666,3.33333313 L5.17333316,9.88666601 L6.11333303,10.8266659 L12.6666659,4.27333294 L12.6666659,6.66666627 L13.9999992,6.66666627 L13.9999992,1.99999988 L9.33333277,1.99999988 Z" id="Fill-3" fill="#F5F9FF"></path>
                </g>
            </g>
        </g>
    </g>
</svg>
